<svg xmlns="http://www.w3.org/2000/svg" xmlns:xlink="http://www.w3.org/1999/xlink" viewBox="0 0 460.63 48"><defs><symbol id="logo_2" data-name="logo 2" viewBox="0 0 460.63 48"><g id="Layer_1-2" data-name="Layer 1"><path d="M.53,41.39A3,3,0,0,1,0,40.84l7.08-8.34.48.49a18.61,18.61,0,0,0,11.8,4.64c4.3,0,6.55-1.77,6.55-4.36,0-2-1.3-3.27-5.86-3.89L17.58,29C7.55,27.61,2.1,23.11,2.1,14.46S8.85,0,19.35,0A28,28,0,0,1,35.92,5.11l.55.43-5.92,8.6s-.22-.16-.56-.37A18.73,18.73,0,0,0,19.55,10.3c-3.41,0-5.11,1.64-5.11,3.89,0,2,1.5,3.34,5.93,3.89l2.45.34C33,19.84,38.17,24.34,38.17,33.14c0,8.59-6.55,14.86-19,14.86C11.65,48,4,44.8.53,41.39Z"/><path d="M52,47.18h0V11.46H39.52V.82h37V11.45H64V47.18H52Z"/><path d="M105.06,47.19l-7.33-16.5H92.9v16.5h-12V.82h19.57c10.64,0,16.7,6.2,16.7,14.93,0,5.8-2.73,10.5-7.64,13l8.92,18.48Zm.1-31.3c0-3-2-4.91-5.45-4.91H92.9V20.8h6.82C103.12,20.8,105.17,18.89,105.17,15.89Z"/><path d="M135,.82h12.41l16.16,46.36H150.94l-2.39-7.84H133.48l-2.39,7.84H118.51Zm10.53,28.57L141.16,14.6l-4.6,14.79Z"/><path d="M182.45,47.18h-12V11.46H158V.82h37V11.46H182.45Z"/><path d="M199.35.82h31.7V11h-19.7v7.84h16.36v10H211.35V37h19.7V47.18h-31.7Z"/><path d="M235.23,24c0-6.34.27-9.07,1.36-12.61C239.05,3.82,245.8,0,254.05,0c8.52,0,14.25,4,16.84,9.89l.34.8L261,15a5.24,5.24,0,0,0-.3-.58,7,7,0,0,0-6.61-3.75c-3.14,0-5.18,1.5-6,4.09-.54,1.64-.68,3.68-.68,9.2s.2,7.64.68,9.2c.89,2.59,3,4.09,6.34,4.09,3,0,5.39-1.3,6.14-3.68a10,10,0,0,0,.4-3.41H254.8V21.14h17.93v4.23c0,4.43-.27,7.91-1.23,10.77-2.46,7.7-9,11.86-17.45,11.86-8.25,0-15-3.82-17.45-11.39C235.51,33.07,235.23,30.34,235.23,24Z"/><path d="M285.91,47.18h0V29.25L271.48.82h12.39l8.21,16.71L300.15.82h12.19L297.91,29.25V47.18Z"/><path d="M363.7,47.18l-7.55-26.83-7.62,26.83h-9.91L325.61.82h12.65l6.22,28L352,.82h8.42l7.7,28,6-28h12.52L373.68,47.18Z"/><path d="M389.13.82h31.7V11h-19.7v7.84h16.36v10H401.13V37h19.7V47.18h-31.7Z"/><path d="M425.1.82h19.57c10.36,0,15.14,5,15.14,12.34,0,4.77-2.18,8.11-5.66,10v.14c3.41,1.3,6.48,5.18,6.48,10.57,0,9.07-6.41,13.36-16.16,13.36H425.1Zm17.25,18.61c3.61,0,5.52-1.57,5.52-4.77S446,9.89,442.35,9.89H437.1v9.54ZM443,38.11c3.75,0,5.66-1.84,5.66-5.25,0-3.2-1.91-5.18-5.66-5.18H437.1V38.11Z"/></g></symbol></defs><title>SWM_logo</title><g id="Layer_2" data-name="Layer 2"><g id="Design"><use id="logo_2-3" data-name="logo 2" width="460.63" height="48" xlink:href="#logo_2"/></g></g></svg>