<?xml version="1.0" encoding="utf-8"?>
<!-- Generator: Adobe Illustrator 23.0.4, SVG Export Plug-In . SVG Version: 6.00 Build 0)  -->
<svg version="1.1" id="レイヤー_1" xmlns="http://www.w3.org/2000/svg" xmlns:xlink="http://www.w3.org/1999/xlink" x="0px"
	 y="0px" viewBox="0 0 460.6 48" style="enable-background:new 0 0 460.6 48;" xml:space="preserve">
<style type="text/css">
	.st0{fill:#FFFFFF;}
</style>
<symbol  id="logo_2" viewBox="-230.3 -24 460.6 48">
	<g id="Layer_1-2_3_">
		<path class="st0" d="M-229.8,17.4c-0.2-0.2-0.4-0.3-0.5-0.5l7.1-8.3l0.5,0.5c3.3,2.9,7.4,4.5,11.8,4.6c4.3,0,6.6-1.8,6.6-4.4
			c0-2-1.3-3.3-5.9-3.9l-2.5-0.4c-10-1.4-15.5-5.9-15.5-14.5S-221.5-24-211-24c5.9-0.1,11.7,1.7,16.6,5.1l0.6,0.4l-5.9,8.6
			c0,0-0.2-0.2-0.6-0.4c-3.1-2.2-6.7-3.4-10.4-3.5c-3.4,0-5.1,1.6-5.1,3.9c0,2,1.5,3.3,5.9,3.9l2.4,0.3c10.2,1.4,15.4,5.9,15.4,14.7
			c0,8.6-6.6,14.9-19,14.9C-218.7,24-226.3,20.8-229.8,17.4z"/>
		<path class="st0" d="M-178.3,23.2L-178.3,23.2v-35.7h-12.5v-10.6h37v10.6h-12.5v35.7H-178.3z"/>
		<path class="st0" d="M-125.3,23.2l-7.3-16.5h-4.8v16.5h-12v-46.4h19.6c10.6,0,16.7,6.2,16.7,14.9c0,5.8-2.7,10.5-7.6,13l8.9,18.5
			L-125.3,23.2z M-125.2-8.1c0-3-2-4.9-5.4-4.9h-6.8v9.8h6.8C-127.2-3.2-125.1-5.1-125.2-8.1L-125.2-8.1z"/>
		<path class="st0" d="M-95.3-23.2h12.4l16.2,46.4h-12.6l-2.4-7.8h-15.1l-2.4,7.8h-12.6L-95.3-23.2z M-84.8,5.4l-4.4-14.8l-4.6,14.8
			H-84.8z"/>
		<path class="st0" d="M-47.9,23.2h-12v-35.7h-12.4v-10.6h37v10.6h-12.6V23.2z"/>
		<path class="st0" d="M-31-23.2H0.7V-13H-19v7.8h16.4v10H-19V13H0.7v10.2H-31V-23.2z"/>
		<path class="st0" d="M4.9,0c0-6.3,0.3-9.1,1.4-12.6C8.7-20.2,15.5-24,23.7-24c8.5,0,14.2,4,16.8,9.9l0.3,0.8L30.7-9
			c-0.1-0.2-0.2-0.4-0.3-0.6c-1.3-2.4-3.9-3.9-6.6-3.8c-3.1,0-5.2,1.5-6,4.1c-0.5,1.6-0.7,3.7-0.7,9.2s0.2,7.6,0.7,9.2
			c0.9,2.6,3,4.1,6.3,4.1c3,0,5.4-1.3,6.1-3.7c0.3-1.1,0.5-2.3,0.4-3.4h-6.2v-9h17.9v4.2c0,4.4-0.3,7.9-1.2,10.8
			c-2.5,7.7-9,11.9-17.4,11.9c-8.2,0-15-3.8-17.4-11.4C5.2,9.1,4.9,6.3,4.9,0z"/>
		<path class="st0" d="M55.6,23.2L55.6,23.2V5.3L41.2-23.2h12.4l8.2,16.7l8.1-16.7H82L67.6,5.3v17.9H55.6z"/>
		<path class="st0" d="M133.4,23.2l-7.5-26.8l-7.6,26.8h-9.9l-13-46.4h12.6l6.2,28l7.5-28h8.4l7.7,28l6-28h12.5l-13,46.4H133.4z"/>
		<path class="st0" d="M158.8-23.2h31.7V-13h-19.7v7.8h16.4v10h-16.4V13h19.7v10.2h-31.7V-23.2z"/>
		<path class="st0" d="M194.8-23.2h19.6c10.4,0,15.1,5,15.1,12.3c0,4.8-2.2,8.1-5.7,10v0.1c3.4,1.3,6.5,5.2,6.5,10.6
			c0,9.1-6.4,13.4-16.2,13.4h-19.4V-23.2z M212-4.6c3.6,0,5.5-1.6,5.5-4.8s-1.9-4.8-5.5-4.8h-5.2v9.5H212z M212.7,14.1
			c3.8,0,5.7-1.8,5.7-5.2c0-3.2-1.9-5.2-5.7-5.2h-5.9v10.4H212.7z"/>
	</g>
</symbol>
<title>SWM_logo</title>
<g id="Layer_2">
	<g id="Design">
		
			<use xlink:href="#logo_2"  width="460.6" height="48" id="logo_2-3" x="-230.3" y="-24" transform="matrix(0.9999 0 0 0.9999 230.315 24)" style="overflow:visible;"/>
	</g>
</g>
</svg>
