<svg width="800.0001096638441" height="600.0000822478831" xmlns="http://www.w3.org/2000/svg">
 <!-- Created with Method Draw - http://github.com/duopixel/Method-Draw/ -->

 <g>
  <title>background</title>
  <rect height="602" width="802" y="-1" x="-1" fill="#fff" id="canvas_background"/>
  <g y="0" x="0" height="100%" width="100%" display="none" overflow="visible" id="canvasGrid">
   <rect height="100%" width="100%" y="0" x="0" stroke-width="0" fill="url(#gridpattern)"/>
  </g>
 </g>
 <g>
  <title>Layer 1</title>
  <g id="svg_5">
   <path d="m288.21564,455.15503c-75.51678,0 -136.62585,-69.53741 -136.62585,-155.15564s61.10907,-155.15442 136.62585,-155.15442l260.8299,0c54.89862,0 99.36469,50.49548 99.36469,112.83917s-44.46606,112.841 -99.36469,112.841l-211.14807,0c-34.2807,0 -62.10254,-31.59579 -62.10254,-70.52576s27.82184,-70.52457 62.10254,-70.52457l186.30762,0l0,42.31522l-186.30762,0a24.84102,28.21007 0 1 0 0,56.41992l211.14807,0c34.28064,0 62.10364,-31.59583 62.10364,-70.52582s-27.823,-70.52455 -62.10364,-70.52455l-260.8299,0c-54.89876,0 -99.36478,50.49609 -99.36478,112.8398s44.46602,112.84039 99.36478,112.84039l235.98944,0l0,42.31525l-235.98944,0z" fill="#999999" id="svg_4"/>
  </g>
 </g>
</svg>