<?xml version="1.0" encoding="utf-8"?>
<svg xmlns="http://www.w3.org/2000/svg" viewBox="0 0 32 32" fill="#ffffff"><path d="M 16 4 C 9.382813 4 4 9.382813 4 16 L 6 16 C 6 10.484375 10.484375 6 16 6 C 19.695313 6 22.925781 8.011719 24.65625 11 L 21 11 L 21 13 L 28 13 L 28 6 L 26 6 L 26 9.40625 C 23.855469 6.152344 20.179688 4 16 4 Z M 26 16 C 26 21.515625 21.515625 26 16 26 C 12.304688 26 9.074219 23.988281 7.34375 21 L 11 21 L 11 19 L 4 19 L 4 26 L 6 26 L 6 22.59375 C 8.144531 25.847656 11.820313 28 16 28 C 22.617188 28 28 22.617188 28 16 Z" fill="#ffffff"/></svg>
