<?xml version="1.0" encoding="utf-8"?>
<!-- Generator: Adobe Illustrator 24.0.1, SVG Export Plug-In . SVG Version: 6.00 Build 0)  -->
<svg version="1.1" id="レイヤー_1" xmlns="http://www.w3.org/2000/svg" xmlns:xlink="http://www.w3.org/1999/xlink" x="0px"
	 y="0px" viewBox="0 0 32 32" style="enable-background:new 0 0 32 32;" xml:space="preserve">
<style type="text/css">
	.st0{fill:#152B7B;}
</style>
<g id="surface1">
	<path class="st0" d="M3,5v19.9h9.5l1.8-1.8H4.8V6.8h19.9v5.9l1.8-1.8V5H3z M6.6,8.6v12.6h9.5l1.8-1.8H8.4v-9H21v5.9l1.8-1.8V8.6
		H6.6z M26.5,14.1c-0.7,0-1.4,0.3-1.9,0.8l-8.9,8.9L15.4,24l-0.1,0.3l-0.6,3.2l-0.3,1.3l1.3-0.3l3.2-0.6l0.3-0.1l0.2-0.2l8.9-8.9
		c1-1,1-2.7,0-3.8C27.8,14.3,27.2,14.1,26.5,14.1z M26.5,15.8c0.2,0,0.4,0.1,0.6,0.3c0.4,0.4,0.4,0.8,0,1.2l-8.7,8.7l-1.6,0.3
		l0.3-1.6l8.7-8.7l0.1,0C26,15.9,26.3,15.8,26.5,15.8z"/>
</g>
</svg>
