<?xml version="1.0" encoding="utf-8"?>
<!-- Generator: Adobe Illustrator 21.1.0, SVG Export Plug-In . SVG Version: 6.00 Build 0)  -->
<svg version="1.1" id="レイヤー_1" xmlns="http://www.w3.org/2000/svg" xmlns:xlink="http://www.w3.org/1999/xlink" x="0px"
	 y="0px" viewBox="0 0 20 20" style="enable-background:new 0 0 20 20;" xml:space="preserve">
<style type="text/css">
	.st0{fill:none;}
</style>
<symbol  id="New_Symbol_127" viewBox="0 -20 20 20">
	<g>
		<path d="M13.3-0.8H15v-1.7h0.8c0.4,0,0.8-0.2,1.2-0.5c0.3-0.3,0.5-0.7,0.5-1.2v-11.6c0-0.4-0.2-0.8-0.5-1.2
			c-0.3-0.3-0.7-0.5-1.2-0.5H4.2c-0.5,0-0.9,0.2-1.2,0.5c-0.3,0.3-0.5,0.7-0.5,1.2v11.6C2.5-3.7,2.7-3.3,3-3
			c0.3,0.3,0.7,0.5,1.2,0.5H5v1.7h1.7v-1.7h6.6V-0.8z M15.8-15.8v9.1H4.2v-9.1H15.8z M14.2-10v-4.2H10v4.2H14.2z"/>
	</g>
	<rect y="-20" class="st0" width="20" height="20"/>
</symbol>
<use xlink:href="#New_Symbol_127"  width="20" height="20" y="-20" transform="matrix(1 0 0 -1 0 0)" style="overflow:visible;opacity:0.9;"/>
</svg>
