<?xml version="1.0" encoding="utf-8"?>
<!-- Generator: Adobe Illustrator 21.1.0, SVG Export Plug-In . SVG Version: 6.00 Build 0)  -->
<svg version="1.1" id="レイヤー_1" xmlns="http://www.w3.org/2000/svg" xmlns:xlink="http://www.w3.org/1999/xlink" x="0px"
	 y="0px" viewBox="0 0 50 50" style="enable-background:new 0 0 50 50;" xml:space="preserve">
<style type="text/css">
	.st0{fill:#666666;}
</style>
<g id="surface1">
	<path class="st0" d="M25,4C12.3,4,2,13,2,24c0,6.2,3.3,12.1,9,15.8c-0.1,1.1-0.7,3.6-2.8,6.6L7.1,48h2c5.4,0,9.1-3.3,10.3-4.6
		c1.8,0.4,3.7,0.6,5.6,0.6c12.7,0,23-9,23-20S37.7,4,25,4z M15,26c-1.1,0-2-0.9-2-2s0.9-2,2-2s2,0.9,2,2S16.1,26,15,26z M25,26
		c-1.1,0-2-0.9-2-2s0.9-2,2-2s2,0.9,2,2S26.1,26,25,26z M35,26c-1.1,0-2-0.9-2-2s0.9-2,2-2s2,0.9,2,2S36.1,26,35,26z"/>
</g>
</svg>
