<?xml version="1.0" encoding="utf-8"?>
<!-- Generator: Adobe Illustrator 21.1.0, SVG Export Plug-In . SVG Version: 6.00 Build 0)  -->
<svg version="1.1" id="レイヤー_1" xmlns="http://www.w3.org/2000/svg" xmlns:xlink="http://www.w3.org/1999/xlink" x="0px"
	 y="0px" viewBox="0 0 20 20" style="enable-background:new 0 0 20 20;" xml:space="preserve">
<style type="text/css">
	.st0{fill:none;}
	.st1{fill:#153C93;}
</style>
<symbol  id="New_Symbol_76" viewBox="-10 -10 20 20">
	<rect x="-10" y="-10" class="st0" width="20" height="20"/>
	<path class="st1" d="M1.3-4C1.1-3.7,0.9-3.4,0.8-3H-7V7H6V2.9c0.8-0.2,1.6-0.6,2.2-1.2C8.5,1.3,8.8,0.9,9,0.5v7C9,8.3,8.3,9,7.5,9
		h-16C-9.3,9-10,8.3-10,7.5v-11C-10-4.3-9.3-5-8.5-5h7.9C-0.2-4.7,0.3-4.4,1-4.1C1.1-4.1,1.2-4,1.3-4z"/>
	<g>
		<path class="st1" d="M1.7-5.9C2.8-5.4,3.9-5.2,5-5.2s2.1-0.2,3.3-0.7C9.4-6.4,10-7,10-7.7V-9H0v1.3C0-7,0.6-6.4,1.7-5.9z M6.8-3.3
			C6.3-3.8,5.7-4,5-4S3.7-3.8,3.2-3.3S2.5-2.2,2.5-1.5s0.2,1.3,0.7,1.8S4.3,1,5,1s1.3-0.2,1.8-0.7s0.7-1.1,0.7-1.8S7.2-2.8,6.8-3.3z
			"/>
	</g>
</symbol>
<use xlink:href="#New_Symbol_76"  width="20" height="20" id="XMLID_21_" x="-10" y="-10" transform="matrix(1 0 0 -1 10 10)" style="overflow:visible;"/>
</svg>
