<?xml version="1.0" encoding="utf-8"?>
<!-- Generator: Adobe Illustrator 21.1.0, SVG Export Plug-In . SVG Version: 6.00 Build 0)  -->
<svg version="1.1" id="レイヤー_1" xmlns="http://www.w3.org/2000/svg" xmlns:xlink="http://www.w3.org/1999/xlink" x="0px"
	 y="0px" viewBox="0 0 24 24" style="enable-background:new 0 0 24 24;" xml:space="preserve">
<style type="text/css">
	.st0{fill:#666666;}
</style>
<g id="surface1">
	<path class="st0" d="M12,5C6,5,1.4,11.1,1.2,11.4c-0.3,0.4-0.3,0.8,0,1.2C1.4,12.9,6,19,12,19s10.6-6.1,10.8-6.4
		c0.3-0.4,0.3-0.8,0-1.2C22.6,11.1,18,5,12,5z M12,7c2.8,0,5,2.2,5,5s-2.2,5-5,5s-5-2.2-5-5S9.2,7,12,7z M12,9.5
		c-1.4,0-2.5,1.1-2.5,2.5s1.1,2.5,2.5,2.5s2.5-1.1,2.5-2.5S13.4,9.5,12,9.5z"/>
</g>
</svg>
