<?xml version="1.0" encoding="utf-8"?>
<!-- Generator: Adobe Illustrator 23.0.4, SVG Export Plug-In . SVG Version: 6.00 Build 0)  -->
<svg version="1.1" id="Layer_1" xmlns="http://www.w3.org/2000/svg" xmlns:xlink="http://www.w3.org/1999/xlink" x="0px" y="0px"
	 viewBox="0 0 40 40" style="enable-background:new 0 0 40 40;" xml:space="preserve">
<style type="text/css">
	.st0{fill:#FFFFFF;stroke:#CCCCCC;stroke-miterlimit:10;}
	.st1{fill:#CCCCCC;}
	.st2{fill:#FFFFFF;stroke:#CCCCCC;stroke-width:2;stroke-miterlimit:10;}
</style>
<g>
	<g>
		<path class="st0" d="M24.4,16.8c5.6,0,10.1,3.8,10.1,8.5c0,1.9-0.8,3.8-2.3,5.3L31.9,31l0.2,0.5c0.5,1.1,1.1,2,1.6,2.9
			c-1.5-0.2-3-0.7-4.5-1.5l-0.3-0.1L28.6,33c-1.3,0.5-2.7,0.7-4.1,0.7c-5.6,0-10.1-3.8-10.1-8.5S18.9,16.8,24.4,16.8 M24.4,16
			c-6.1,0-10.9,4.1-10.9,9.3s4.9,9.3,10.9,9.3c1.6,0,3.1-0.3,4.5-0.8c2,1,4.4,1.6,6.5,1.6c-1-1.2-1.8-2.8-2.5-4.2
			c1.5-1.6,2.5-3.6,2.5-5.9C35.4,20.1,30.5,16,24.4,16L24.4,16z"/>
	</g>
</g>
<path class="st1" d="M26.1,21.7h-2.4l-3.3,8.9h2.2c0,0,2.2-7,2.2-7.3h0.2c0,0.3,2.3,7.3,2.3,7.3h2.2L26.1,21.7z"/>
<rect x="21.9" y="26.6" class="st1" width="5.7" height="1.6"/>
<g>
	<g>
		<path class="st2" d="M5.4,23.6c0.7-1,1.4-2.2,2-3.6l0.2-0.2l-0.2-0.2C5.9,18,5.1,16,5.1,13.9C5.1,9,9.8,5,15.6,5s10.5,4,10.5,8.9
			s-4.7,8.9-10.5,8.9c-1.5,0-2.9-0.2-4.3-0.8l-0.2,0l-0.2,0.1C9.1,22.9,7.1,23.5,5.4,23.6z"/>
	</g>
</g>
<path class="st1" d="M15.1,10.3c1.3,0,2.4,1.5,2.4,3.2s-1.1,3.2-2.4,3.2s-2.4-1.5-2.4-3.2S13.8,10.3,15.1,10.3 M15.1,8.7
	c-2.3,0-4,2.2-4,4.9s1.8,4.9,4,4.9s4-2.2,4-4.9S17.4,8.7,15.1,8.7L15.1,8.7z"/>
<polygon class="st1" points="15.1,16.8 17.6,16.8 20,19.2 17.6,19.2 "/>
</svg>
