<?xml version="1.0" encoding="utf-8"?>
<!-- Generator: Adobe Illustrator 23.0.4, SVG Export Plug-In . SVG Version: 6.00 Build 0)  -->
<svg version="1.1" id="レイヤー_1" xmlns="http://www.w3.org/2000/svg" xmlns:xlink="http://www.w3.org/1999/xlink" x="0px"
	 y="0px" viewBox="0 0 24 24" style="enable-background:new 0 0 24 24;" xml:space="preserve">
<style type="text/css">
	.st0{fill:#F44336;fill-opacity:0;}
	.st1{fill:#153C93;}
</style>
<title>Asset 5</title>
<g id="Layer_2">
	<g id="Design">
		<rect y="0" class="st0" width="24" height="24"/>
		<polygon class="st1" points="17.9,18.1 20.3,15.1 20.7,15.5 22.1,14 21.6,13.5 18.6,10.5 18.1,10 16.6,11.4 17,11.8 14,14.2 
			13.4,13.6 11.9,15 12.5,15.6 16.5,19.6 17,20.1 18.5,18.7 		"/>
		<rect x="9" y="19.5" transform="matrix(0.7071 -0.7071 0.7071 0.7071 -10.4214 14.4826)" class="st1" width="6.5" height="0.7"/>
		<rect x="2" y="4" class="st1" width="13" height="2"/>
		<rect x="2" y="8" class="st1" width="13" height="2"/>
		<rect x="2" y="12" class="st1" width="8" height="2"/>
		<rect x="2" y="16" class="st1" width="8" height="2"/>
	</g>
</g>
</svg>
