<?xml version="1.0" encoding="iso-8859-1"?>
<!-- Generator: Adobe Illustrator 20.0.0, SVG Export Plug-In . SVG Version: 6.00 Build 0)  -->
<svg version="1.1"  xmlns="http://www.w3.org/2000/svg" xmlns:xlink="http://www.w3.org/1999/xlink" x="0px" y="0px"
	 viewBox="0 0 48 48" style="enable-background:new 0 0 48 48;" xml:space="preserve">
<rect x="2" y="10" style="fill:#F5F5F5;" width="44" height="30"/>
<polyline style="fill-rule:evenodd;clip-rule:evenodd;fill:none;stroke:#263238;stroke-width:0.75;stroke-miterlimit:10;" points="
	15.58,14.59 15.58,14.59 11.204,21.341 "/>
<line style="fill-rule:evenodd;clip-rule:evenodd;fill:none;stroke:#263238;stroke-width:0.75;stroke-miterlimit:10;" x1="8.088" y1="30.712" x2="12.465" y2="37.463"/>
<polyline style="fill-rule:evenodd;clip-rule:evenodd;fill:none;stroke:#263238;stroke-width:0.75;stroke-miterlimit:10;" points="
	33.977,13.551 33.977,13.551 38.379,20.302 "/>
<line style="fill-rule:evenodd;clip-rule:evenodd;fill:none;stroke:#263238;stroke-width:0.75;stroke-miterlimit:10;" x1="9.646" y1="20.327" x2="14.023" y2="13.576"/>
<polyline style="fill-rule:evenodd;clip-rule:evenodd;fill:none;stroke:#263238;stroke-width:0.75;stroke-miterlimit:10;" points="
	34.793,18.225 36.796,21.316 36.796,21.316 "/>
<line style="fill-rule:evenodd;clip-rule:evenodd;fill:none;stroke:#263238;stroke-width:0.75;stroke-miterlimit:10;" x1="39.813" y1="30.712" x2="37.785" y2="33.828"/>
<line style="fill-rule:evenodd;clip-rule:evenodd;fill:none;stroke:#263238;stroke-width:0.75;stroke-miterlimit:10;" x1="14.023" y1="36.449" x2="11.995" y2="33.333"/>
<polyline style="fill-rule:evenodd;clip-rule:evenodd;fill:none;stroke:#263238;stroke-width:0.75;stroke-miterlimit:10;" points="
	37.909,16.197 39.937,19.288 39.937,19.288 "/>
<line style="fill-rule:evenodd;clip-rule:evenodd;fill:none;stroke:#263238;stroke-width:0.75;stroke-miterlimit:10;" x1="36.698" y1="28.684" x2="34.67" y2="31.8"/>
<line style="fill-rule:evenodd;clip-rule:evenodd;fill:none;stroke:#263238;stroke-width:0.75;stroke-miterlimit:10;" x1="38.255" y1="29.698" x2="36.228" y2="32.814"/>
<polyline style="fill-rule:evenodd;clip-rule:evenodd;fill:none;stroke:#263238;stroke-width:0.75;stroke-miterlimit:10;" points="
	32.42,14.59 34.447,17.681 34.447,17.681 "/>
<line style="fill-rule:evenodd;clip-rule:evenodd;fill:none;stroke:#263238;stroke-width:0.75;stroke-miterlimit:10;" x1="37.439" y1="34.347" x2="35.437" y2="37.463"/>
<line style="fill-rule:evenodd;clip-rule:evenodd;fill:none;stroke:#263238;stroke-width:0.75;stroke-miterlimit:10;" x1="11.649" y1="32.814" x2="9.646" y2="29.698"/>
<polyline style="fill-rule:evenodd;clip-rule:evenodd;fill:none;stroke:#263238;stroke-width:0.75;stroke-miterlimit:10;" points="
	35.535,12.562 37.563,15.653 37.563,15.653 "/>
<line style="fill-rule:evenodd;clip-rule:evenodd;fill:none;stroke:#263238;stroke-width:0.75;stroke-miterlimit:10;" x1="34.324" y1="32.319" x2="32.296" y2="35.435"/>
<line style="fill-rule:evenodd;clip-rule:evenodd;fill:none;stroke:#263238;stroke-width:0.75;stroke-miterlimit:10;" x1="35.882" y1="33.333" x2="33.879" y2="36.449"/>
<polyline style="fill-rule:evenodd;clip-rule:evenodd;fill:none;stroke:#263238;stroke-width:0.75;stroke-miterlimit:10;" points="
	12.465,12.562 12.465,12.562 8.063,19.313 "/>
<line style="fill-rule:evenodd;clip-rule:evenodd;fill:none;stroke:#263238;stroke-width:0.75;stroke-miterlimit:10;" x1="11.204" y1="28.684" x2="15.58" y2="35.435"/>
<path style="fill-rule:evenodd;clip-rule:evenodd;fill:#F44336;" d="M20,29c2.209,0,4-1.791,4-4c0-2.209,1.791-4,4-4s4,1.791,4,4
	c0-4.418-3.582-8-8-8s-8,3.582-8,8C16,27.209,17.791,29,20,29z"/>
<path style="fill-rule:evenodd;clip-rule:evenodd;fill:#3949AB;" d="M28,21c-2.209,0-4,1.791-4,4c0,2.209-1.791,4-4,4s-4-1.791-4-4
	c0,4.418,3.582,8,8,8s8-3.582,8-8C32,22.791,30.209,21,28,21z"/>
</svg>
