<?xml version="1.0" encoding="iso-8859-1"?>
<!-- Generator: Adobe Illustrator 19.2.0, SVG Export Plug-In . SVG Version: 6.00 Build 0)  -->
<svg version="1.1"  xmlns="http://www.w3.org/2000/svg" xmlns:xlink="http://www.w3.org/1999/xlink" x="0px" y="0px"
	 viewBox="0 0 48 48" style="enable-background:new 0 0 48 48;" xml:space="preserve">
<metadata><?xpacket begin="﻿" ?>
<x:xmpmeta xmlns:x="adobe:ns:meta/" x:xmptk="Adobe XMP Core 5.6-c111 79.158366, 2015/09/25-01:12:00        ">
   <rdf:RDF xmlns:rdf="http://www.w3.org/1999/02/22-rdf-syntax-ns#">
      <rdf:Description rdf:about=""/>
   </rdf:RDF>
</x:xmpmeta>
                                                                                                    
                                                                                                    
                                                                                                    
                                                                                                    
                                                                                                    
                                                                                                    
                                                                                                    
                                                                                                    
                                                                                                    
                                                                                                    
                                                                                                    
                                                                                                    
                                                                                                    
                                                                                                    
                                                                                                    
                                                                                                    
                                                                                                    
                                                                                                    
                                                                                                    
                                                                                                    
                           
<?xpacket end="w"?></metadata>
<rect x="2" y="9" style="fill:#3F51B5;" width="44" height="30"/>
<path style="fill:#FFFFFF;" d="M22,11.2L17.6,14H22v4h-3.8l3.8,2.4V23h-1l-7-4.3V23h-4v-4.1L3.5,23H2v-2.3L6.3,18H2v-4h4.9L2,11V9
	h2.1l5.9,3.7V9h4v4l6.4-4H22V11.2z M31.341,24.298l2.168-1.916l-2.881-0.276l-1.153-2.653l-1.151,2.653l-2.878,0.276l2.165,1.916
	l-0.627,2.822l2.492-1.468l2.491,1.468L31.341,24.298z M36.628,30.105l-1.153-2.654l-1.151,2.654l-2.878,0.275l2.165,1.917
	l-0.627,2.822l2.492-1.468l2.492,1.468l-0.627-2.822l2.168-1.917L36.628,30.105z M32.983,20.123l2.492-1.47l2.492,1.47l-0.627-2.825
	l2.168-1.916l-2.881-0.276l-1.153-2.653l-1.151,2.653l-2.878,0.276l2.166,1.916L32.983,20.123z M44.509,21.382l-2.881-0.276
	l-1.153-2.653l-1.151,2.653l-2.878,0.276l2.166,1.916l-0.628,2.825l2.492-1.469l2.492,1.469l-0.627-2.824L44.509,21.382z"/>
<path style="fill:#E53935;" d="M17.3,18l4.7,2.9V22l-6.4-4H17.3z M9.5,14L2,9.3v1.1L7.7,14H9.5z M2,22.3V23h0.6l7.4-4.6V18H8.9
	L2,22.3z M21.2,9L14,13.5V14h1l7-4.4V9H21.2z M13,9h-2v6H2v2h9v6h2v-6h9v-2h-9V9z M29.476,21.962l0.47,1.083l1.175,0.113
	l-0.884,0.782l0.256,1.152l-1.017-0.599l-1.017,0.599l0.256-1.152l-0.884-0.782l1.175-0.113L29.476,21.962z M35.476,29.962
	l0.47,1.083l1.175,0.113l-0.884,0.782l0.256,1.152l-1.017-0.599l-1.017,0.599l0.256-1.152l-0.884-0.782l1.175-0.113L35.476,29.962z
	 M35.476,14.962l0.47,1.083l1.175,0.113l-0.884,0.782l0.256,1.152l-1.017-0.599l-1.017,0.599l0.256-1.152l-0.884-0.782l1.175-0.113
	L35.476,14.962z M40.476,20.962l0.47,1.083l1.175,0.113l-0.884,0.782l0.256,1.152l-1.017-0.599l-1.017,0.599l0.256-1.152
	l-0.884-0.782l1.175-0.113L40.476,20.962z"/>
</svg>
