<?xml version="1.0" encoding="utf-8"?>
<!-- Generator: Adobe Illustrator 24.0.0, SVG Export Plug-In . SVG Version: 6.00 Build 0)  -->
<svg version="1.1" id="レイヤー_1" xmlns="http://www.w3.org/2000/svg" xmlns:xlink="http://www.w3.org/1999/xlink" x="0px"
	 y="0px" viewBox="0 0 44 28" style="enable-background:new 0 0 44 28;" xml:space="preserve">
<style type="text/css">
	.st0{fill:#3F51B5;}
	.st1{fill:#FFFFFF;}
	.st2{fill:#E53935;}
</style>
<rect class="st0" width="44" height="28"/>
<g>
	<polygon class="st1" points="0,4.2 20.8,16.9 23.9,11.8 4.6,0 0,0 	"/>
	<polygon class="st1" points="44,0 40.4,0 21.1,11.8 24.2,16.9 44,4.8 	"/>
	<polygon class="st1" points="24.2,10.3 21.1,15.4 41.7,28 44,28 44,22.4 	"/>
	<polygon class="st1" points="0,23 0,28 3.3,28 23.9,15.4 20.8,10.3 	"/>
	<rect y="10" class="st1" width="44" height="8"/>
	<rect x="18" class="st1" width="8" height="28"/>
</g>
<g>
	<polygon class="st2" points="15.2,10 0,0.7 0,3 11.4,10 	"/>
	<polygon class="st2" points="42.3,0 25.9,10 29.8,10 44,1.3 44,0 	"/>
	<polygon class="st2" points="31.1,18 44,25.9 44,23.6 34.9,18 	"/>
	<polygon class="st2" points="13.9,18 0,26.5 0,28 1.4,28 17.8,18 	"/>
	<rect y="12" class="st2" width="44" height="4"/>
	<rect x="20" class="st2" width="4" height="28"/>
</g>
</svg>
