<?xml version="1.0" encoding="iso-8859-1"?>
<!-- Generator: Adobe Illustrator 21.1.0, SVG Export Plug-In . SVG Version: 6.00 Build 0)  -->
<svg xmlns="http://www.w3.org/2000/svg" xmlns:xlink="http://www.w3.org/1999/xlink" version="1.1" id="Layer_1" x="0px" y="0px" viewBox="0 0 48 48" style="enable-background:new 0 0 48 48;" xml:space="preserve">
<rect id="red" x="2" y="10" style="fill:#D50000;" width="44" height="27"/>
<rect id="white" x="2" y="36" style="fill:#ECEFF1;" width="44" height="2"/>
<rect id="white_1_" x="2" y="32" style="fill:#ECEFF1;" width="44" height="2"/>
<rect id="white_2_" x="2" y="28" style="fill:#ECEFF1;" width="44" height="2"/>
<rect id="white_3_" x="2" y="24" style="fill:#ECEFF1;" width="44" height="2"/>
<rect id="white_4_" x="2" y="20" style="fill:#ECEFF1;" width="44" height="2"/>
<rect id="white_5_" x="2" y="16" style="fill:#ECEFF1;" width="44" height="2"/>
<rect id="white_6_" x="2" y="12.143" style="fill:#ECEFF1;" width="44" height="1.857"/>
<rect id="blue" x="2" y="10" style="fill:#311B92;" width="26" height="16"/>
<path id="path4945" style="fill:#FFD600;" d="M12.02,12.071c-3.323,0-6.02,2.688-6.02,6s2.697,6,6.02,6  c1.201,0,2.319-0.351,3.259-0.956c-0.547,0.189-1.134,0.292-1.745,0.292C10.587,23.408,8,20.937,8,18s2.587-5.233,5.533-5.233  c0.651,0,1.275,0.116,1.852,0.329C14.424,12.45,13.266,12.071,12.02,12.071z"/>
<path id="path4959" style="fill:#FFD600;" d="M23.003,21.123L20.468,19.8l0.75,2.708l-1.696-2.265L18.992,23l-0.52-2.758  l-1.703,2.26l0.758-2.705l-2.54,1.315l1.887-2.117L14,19.105l2.642-1.109l-2.638-1.117l2.873,0.119l-1.88-2.122l2.536,1.323  l-0.75-2.708l1.696,2.265L19.008,13l0.52,2.758l1.703-2.26l-0.758,2.705l2.54-1.315l-1.887,2.117L24,16.895l-2.642,1.109  l2.638,1.117l-2.873-0.119L23.003,21.123z"/>
</svg>
