<?xml version="1.0" encoding="utf-8"?>
<!-- Generator: Adobe Illustrator 24.0.0, SVG Export Plug-In . SVG Version: 6.00 Build 0)  -->
<svg version="1.1" id="レイヤー_1" xmlns="http://www.w3.org/2000/svg" xmlns:xlink="http://www.w3.org/1999/xlink" x="0px"
	 y="0px" viewBox="0 0 44 27" style="enable-background:new 0 0 44 27;" xml:space="preserve">
<style type="text/css">
	.st0{fill:#ECEFF1;}
	.st1{fill:#F44336;}
	.st2{fill:#3F51B5;}
	.st3{fill:#FFFFFF;}
</style>
<rect class="st0" width="44" height="27"/>
<g>
	<rect x="0" class="st1" width="44" height="3"/>
	<rect x="0" y="6" class="st1" width="44" height="3"/>
	<rect x="0" y="12" class="st1" width="44" height="3"/>
	<rect x="0" y="18" class="st1" width="44" height="3"/>
	<rect x="0" y="24" class="st1" width="44" height="3"/>
</g>
<rect x="0" class="st2" width="21" height="15"/>
<g>
	<polygon class="st3" points="2.3,2 2.7,3 3.8,3.1 3,3.9 3.2,5 2.3,4.5 1.3,5 1.5,3.9 0.8,3.1 1.8,3 	"/>
	<polygon class="st3" points="6.3,2 6.7,3 7.8,3.1 7,3.9 7.2,5 6.3,4.5 5.3,5 5.5,3.9 4.8,3.1 5.8,3 	"/>
	<polygon class="st3" points="10.3,2 10.7,3 11.8,3.1 11,3.9 11.2,5 10.3,4.5 9.3,5 9.5,3.9 8.8,3.1 9.8,3 	"/>
	<polygon class="st3" points="14.3,2 14.7,3 15.8,3.1 15,3.9 15.2,5 14.3,4.5 13.3,5 13.5,3.9 12.8,3.1 13.8,3 	"/>
	<polygon class="st3" points="18,2 18.5,3 19.5,3.1 18.8,3.9 18.9,5 18,4.5 17.1,5 17.3,3.9 16.5,3.1 17.5,3 	"/>
	<polygon class="st3" points="2.3,10 2.7,11 3.8,11.1 3,11.9 3.2,13 2.3,12.5 1.3,13 1.5,11.9 0.8,11.1 1.8,11 	"/>
	<polygon class="st3" points="6.3,10 6.7,11 7.8,11.1 7,11.9 7.2,13 6.3,12.5 5.3,13 5.5,11.9 4.8,11.1 5.8,11 	"/>
	<polygon class="st3" points="10.3,10 10.7,11 11.8,11.1 11,11.9 11.2,13 10.3,12.5 9.3,13 9.5,11.9 8.8,11.1 9.8,11 	"/>
	<polygon class="st3" points="14.3,10 14.7,11 15.8,11.1 15,11.9 15.2,13 14.3,12.5 13.3,13 13.5,11.9 12.8,11.1 13.8,11 	"/>
	<polygon class="st3" points="18,10 18.5,11 19.5,11.1 18.8,11.9 18.9,13 18,12.5 17.1,13 17.3,11.9 16.5,11.1 17.5,11 	"/>
	<polygon class="st3" points="3.3,6 3.7,7 4.8,7.1 4,7.9 4.2,9 3.3,8.5 2.3,9 2.5,7.9 1.8,7.1 2.8,7 	"/>
	<polygon class="st3" points="7.3,6 7.7,7 8.8,7.1 8,7.9 8.2,9 7.3,8.5 6.3,9 6.5,7.9 5.8,7.1 6.8,7 	"/>
	<polygon class="st3" points="11.3,6 11.7,7 12.8,7.1 12,7.9 12.2,9 11.3,8.5 10.3,9 10.5,7.9 9.8,7.1 10.8,7 	"/>
	<polygon class="st3" points="15.3,6 15.7,7 16.8,7.1 16,7.9 16.2,9 15.3,8.5 14.3,9 14.5,7.9 13.8,7.1 14.8,7 	"/>
	<polygon class="st3" points="19,6 19.5,7 20.5,7.1 19.8,7.9 19.9,9 19,8.5 18.1,9 18.3,7.9 17.5,7.1 18.5,7 	"/>
</g>
</svg>
