<?xml version="1.0" encoding="utf-8"?>
<!-- Generator: Adobe Illustrator 24.0.0, SVG Export Plug-In . SVG Version: 6.00 Build 0)  -->
<svg version="1.1" id="Layer_1" xmlns="http://www.w3.org/2000/svg" xmlns:xlink="http://www.w3.org/1999/xlink" x="0px" y="0px"
	 viewBox="0 0 44 28" style="enable-background:new 0 0 44 28;" xml:space="preserve">
<style type="text/css">
	.st0{fill:#283593;}
	.st1{fill:#FFFFFF;}
	.st2{fill:#E53935;}
</style>
<rect class="st0" width="44" height="28"/>
<path class="st1" d="M11,18l0.6,1.9l1.8-0.7l-1.1,1.7l1.7,1L12.1,22l0.3,2L11,22.6L9.7,24l0.3-2L8,21.9l1.7-1l-1.1-1.7l1.8,0.7
	L11,18z M32.5,21l0.3,0.9l0.9-0.4l-0.5,0.8l0.8,0.5L33,23l0.1,1l-0.7-0.7L31.8,24l0.1-1l-1-0.1l0.8-0.5l-0.5-0.8l0.9,0.4L32.5,21z
	 M27.5,12l0.3,0.9l0.9-0.4l-0.5,0.8l0.8,0.5L28,14l0.1,1l-0.7-0.7L26.8,15l0.1-1l-1-0.1l0.8-0.5l-0.5-0.8l0.9,0.4L27.5,12z M32.5,6
	l0.3,0.9l0.9-0.4l-0.5,0.8L34,7.9L33,8l0.1,1l-0.7-0.7L31.8,9L32,8l-1-0.1l0.8-0.5l-0.5-0.8l0.9,0.4L32.5,6z M38.5,11l0.3,0.9
	l0.9-0.4l-0.5,0.8l0.8,0.5L39,13l0.1,1l-0.7-0.7L37.8,14l0.1-1l-1-0.1l0.8-0.5l-0.5-0.8l0.9,0.4L38.5,11z M35,15l0.3,0.7l0.7,0.1
	l-0.6,0.5l0.2,0.7L35,16.6L34.4,17l0.2-0.7L34,15.8l0.7-0.1L35,15z M0,2l9.5,5.9l1.4-2.4L2.1,0H0V2z M22,0h-1.6l-8.8,5.5L13,7.9
	l9-5.6V0z M13,5.8l-1.4,2.4L21,14h1v-2.6L13,5.8z M0,11.7V14h1.5l9.4-5.9L9.5,5.8L0,11.7z M22,5H0v4h22V5z M9,0v14h4V0H9z"/>
<path class="st2" d="M6.9,9h1.7l-8,5H0v-0.7L6.9,9z M7.5,5L0,0.3v1.1L5.7,5H7.5z M15.6,9l6.4,4v-1.1L17.3,9H15.6z M21.2,0l-8,5H15
	l7-4.4V0H21.2z M12,0h-2v6H0v2h10v6h2V8h10V6H12V0z"/>
</svg>
