<?xml version="1.0" encoding="utf-8"?>
<!-- Generator: Adobe Illustrator 24.0.1, SVG Export Plug-In . SVG Version: 6.00 Build 0)  -->
<svg version="1.1" id="レイヤー_1" xmlns="http://www.w3.org/2000/svg" xmlns:xlink="http://www.w3.org/1999/xlink" x="0px"
	 y="0px" viewBox="0 0 32 32" style="enable-background:new 0 0 32 32;" xml:space="preserve">
<style type="text/css">
	.st0{fill:#152B7B;}
</style>
<g id="surface1">
	<path class="st0" d="M16,3C8.8,3,3,8.8,3,16c0,3,1.1,5.8,2.8,8H3v2h6v-6H7v2.3c-1.3-1.8-2-3.9-2-6.3C5,9.9,9.9,5,16,5
		c1.8,0,3.5,0.4,5,1.2V4C19.5,3.4,17.8,3,16,3z M23,6v6h2V9.7c1.3,1.8,2,3.9,2,6.3c0,6.1-4.9,11-11,11c-1.8,0-3.5-0.4-5-1.2V28
		c1.5,0.6,3.2,1,5,1c7.2,0,13-5.8,13-13c0-3-1.1-5.8-2.8-8H29V6H23z M15,8v2c-1.7,0.2-3,1.7-3,3.5c0,1.9,1.6,3.5,3.5,3.5h1
		c0.9,0,1.5,0.6,1.5,1.5S17.4,20,16.5,20H13v2h2v2h2v-2c1.7-0.2,3-1.7,3-3.5c0-1.9-1.6-3.5-3.5-3.5h-1c-0.9,0-1.5-0.6-1.5-1.5
		s0.6-1.5,1.5-1.5H19v-2h-2V8H15z"/>
</g>
</svg>
