<?xml version="1.0" encoding="utf-8"?>
<!-- Generator: Adobe Illustrator 24.0.1, SVG Export Plug-In . SVG Version: 6.00 Build 0)  -->
<svg version="1.1" id="レイヤー_1" xmlns="http://www.w3.org/2000/svg" xmlns:xlink="http://www.w3.org/1999/xlink" x="0px"
	 y="0px" viewBox="0 0 32 32" style="enable-background:new 0 0 32 32;" xml:space="preserve">
<style type="text/css">
	.st0{fill:#152B7B;}
</style>
<path class="st0" d="M16,3.2C9,3.2,3.2,9,3.2,16S9,28.8,16,28.8S28.8,23,28.8,16S23,3.2,16,3.2z M15.4,4.4v5.5
	c-1.4-0.1-2.8-0.2-4-0.4c0.2-0.7,0.4-1.3,0.7-1.8C13.1,5.8,14.2,4.7,15.4,4.4z M16.6,4.4c1.2,0.3,2.4,1.4,3.3,3.2
	c0.3,0.6,0.6,1.2,0.8,1.8c-1.3,0.3-2.6,0.4-4,0.5L16.6,4.4L16.6,4.4z M12.8,4.8c-0.6,0.6-1.2,1.4-1.6,2.3c-0.3,0.6-0.6,1.3-0.8,2
	C9.3,8.9,8.3,8.5,7.4,8C8.9,6.5,10.7,5.4,12.8,4.8z M19.2,4.8c2.1,0.6,3.9,1.8,5.3,3.3c-0.8,0.4-1.8,0.8-2.9,1.1
	c-0.2-0.8-0.5-1.4-0.8-2.1C20.4,6.2,19.8,5.4,19.2,4.8z M25.3,9c1.4,1.8,2.3,4,2.4,6.5h-5c-0.1-1.9-0.3-3.6-0.7-5.2
	C23.2,9.9,24.3,9.5,25.3,9z M6.7,9c1,0.5,2.1,0.9,3.3,1.3c-0.4,1.5-0.7,3.3-0.7,5.2h-5C4.5,13,5.3,10.8,6.7,9z M11.1,10.5
	c1.3,0.3,2.8,0.4,4.3,0.5v4.4h-5C10.5,13.7,10.7,12,11.1,10.5z M20.9,10.5c0.4,1.5,0.6,3.2,0.7,4.9h-5V11
	C18.1,11,19.5,10.8,20.9,10.5z M4.3,16.6h5c0.1,1.9,0.3,3.6,0.7,5.2c-1.2,0.3-2.4,0.8-3.3,1.3C5.3,21.2,4.5,19,4.3,16.6z M10.5,16.6
	h5V21c-1.5,0.1-3,0.2-4.3,0.5C10.7,20,10.5,18.3,10.5,16.6z M16.6,16.6h5c-0.1,1.8-0.3,3.4-0.7,4.9C19.5,21.2,18,21,16.6,21V16.6z
	 M22.6,16.6h5c-0.1,2.4-1,4.6-2.4,6.5c-1-0.5-2.1-0.9-3.3-1.3C22.4,20.1,22.6,18.4,22.6,16.6z M15.4,22.1v5.5
	c-1.2-0.3-2.4-1.4-3.3-3.2c-0.3-0.6-0.6-1.2-0.8-1.8C12.7,22.3,14,22.1,15.4,22.1z M16.6,22.1c1.4,0.1,2.8,0.2,4,0.4
	c-0.2,0.7-0.4,1.3-0.7,1.8c-0.9,1.8-2,2.9-3.3,3.2V22.1L16.6,22.1z M10.4,22.8c0.2,0.8,0.5,1.4,0.8,2.1c0.4,0.9,1,1.7,1.6,2.3
	c-2.1-0.6-3.9-1.8-5.3-3.3C8.3,23.5,9.3,23.1,10.4,22.8z M21.6,22.8c1.1,0.3,2,0.7,2.9,1.1c-1.4,1.5-3.3,2.7-5.4,3.3
	c0.6-0.6,1.2-1.4,1.6-2.3C21.1,24.2,21.4,23.6,21.6,22.8z"/>
</svg>
