<?xml version="1.0" encoding="utf-8"?>
<svg xmlns="http://www.w3.org/2000/svg" viewBox="0 0 32 32" fill="#ffffff"><path d="M 3 5 L 3 22 L 5 22 L 5 7 L 26 7 L 26 5 Z M 6 8 L 6 25 L 17 25 L 17 23 L 8 23 L 8 11.015625 L 17.5 18.257813 L 27 11.015625 L 27 16.175781 L 28.683594 17.878906 L 28.980469 18.175781 L 29 8 Z M 9.960938 10 L 25.039063 10 L 17.5 15.742188 Z M 27.269531 19.292969 L 25.855469 20.707031 L 28.148438 23 L 19 23 L 19 25 L 28.148438 25 L 25.855469 27.292969 L 27.269531 28.707031 L 31.976563 24 Z" fill="#ffffff"/></svg>
