<?xml version="1.0" encoding="utf-8"?>
<!-- Generator: Adobe Illustrator 23.0.6, SVG Export Plug-In . SVG Version: 6.00 Build 0)  -->
<svg version="1.1" id="レイヤー_1" xmlns="http://www.w3.org/2000/svg" xmlns:xlink="http://www.w3.org/1999/xlink" x="0px"
	 y="0px" viewBox="0 0 24 24" style="enable-background:new 0 0 24 24;" xml:space="preserve">
<style type="text/css">
	.st0{fill:#F44336;fill-opacity:0;}
	.st1{fill:#CCCCCC;}
</style>
<title>Asset 5</title>
<g id="Layer_2">
	<g id="Design">
		<rect y="0" class="st0" width="24" height="24"/>
		<g id="surface1">
			<path class="st1" d="M21.4,3l-1.2,0.9c0,0-1.5,1.1-3.6,2.2s-4.9,2.2-7.4,2.2H2V15v0.1l1.5,5.2l0.1,0.5h4.6L8,20l-1.3-4.3h2.5
				c2.4,0,5.2,1,7.3,2.2s3.7,2.2,3.7,2.2l1.2,0.9v-6.9c0.9-0.3,1.5-1.1,1.5-2.1s-0.6-1.8-1.5-2.1V3z M19.9,5.8v12.3
				c-0.6-0.4-1.1-0.8-2.7-1.6c-2.2-1.1-5-2.2-7.8-2.3V9.7c2.8-0.1,5.6-1.2,7.8-2.3C18.8,6.6,19.3,6.2,19.9,5.8z M3.5,9.7H8v4.5H3.5
				V9.7z M3.7,15.7h1.4l1,3.7H4.8L3.7,15.7z"/>
		</g>
	</g>
</g>
</svg>
