<?xml version="1.0" encoding="UTF-8"?>
<svg xmlns="http://www.w3.org/2000/svg" xmlns:xlink="http://www.w3.org/1999/xlink" viewBox="0 0 32 32" version="1.1" fill="#152b7b"><g id="surface1" fill="#152b7b"><path style=" " d="M 17 4 C 14.722656 4 12.816406 5.5625 12.21875 7.65625 C 11.488281 6.664063 10.316406 6 9 6 C 6.800781 6 5 7.800781 5 10 C 5 10.734375 5.214844 11.40625 5.5625 12 L 5 12 L 5 26 L 22 26 L 22 22.375 L 28 24.375 L 28 13.625 L 22 15.625 L 22 12 L 21 12 C 21.632813 11.160156 22 10.125 22 9 C 22 6.25 19.75 4 17 4 Z M 17 6 C 18.667969 6 20 7.332031 20 9 C 20 10.667969 18.667969 12 17 12 C 15.332031 12 14 10.667969 14 9 C 14 7.332031 15.332031 6 17 6 Z M 9 8 C 10.117188 8 11 8.882813 11 10 C 11 11.117188 10.117188 12 9 12 C 7.882813 12 7 11.117188 7 10 C 7 8.882813 7.882813 8 9 8 Z M 12.6875 11.5 C 12.789063 11.675781 12.90625 11.839844 13.03125 12 L 12.4375 12 C 12.535156 11.835938 12.613281 11.679688 12.6875 11.5 Z M 7 14 L 20 14 L 20 24 L 7 24 Z M 26 16.375 L 26 21.625 L 22 20.28125 L 22 17.71875 Z " fill="#152b7b"/></g></svg>
