<?xml version="1.0" encoding="utf-8"?>
<!-- Generator: Adobe Illustrator 21.1.0, SVG Export Plug-In . SVG Version: 6.00 Build 0)  -->
<svg version="1.1" id="レイヤー_1" xmlns="http://www.w3.org/2000/svg" xmlns:xlink="http://www.w3.org/1999/xlink" x="0px"
	 y="0px" viewBox="0 0 32 32" style="enable-background:new 0 0 32 32;" xml:space="preserve">
<style type="text/css">
	.st0{fill:#FFFFFF;}
	.st1{fill:none;}
</style>
<symbol  id="New_Symbol_56" viewBox="0 -32 32 32">
	<g>
		<path class="st0" d="M16-10.6l5.3-5.3L16-21.3l-0.9,0.9l3.7,3.8h-8.1v1.3h8.1l-3.7,3.8L16-10.6z"/>
	</g>
	<rect y="-32" class="st1" width="32" height="32"/>
	<g>
		<path class="st0" d="M16-4c6.6,0,12-5.4,12-12s-5.4-12-12-12S4-22.6,4-16S9.4-4,16-4 M16-3C8.8-3,3-8.8,3-16s5.8-13,13-13
			s13,5.8,13,13S23.2-3,16-3L16-3z"/>
	</g>
</symbol>
<use xlink:href="#New_Symbol_56"  width="32" height="32" id="XMLID_325_" y="-32" transform="matrix(1 0 0 -1 0 0)" style="overflow:visible;"/>
</svg>
