<?xml version="1.0" encoding="utf-8"?>
<!-- Generator: Adobe Illustrator 23.0.4, SVG Export Plug-In . SVG Version: 6.00 Build 0)  -->
<svg version="1.1" id="レイヤー_1" xmlns="http://www.w3.org/2000/svg" xmlns:xlink="http://www.w3.org/1999/xlink" x="0px"
	 y="0px" viewBox="0 0 32 32" style="enable-background:new 0 0 32 32;" xml:space="preserve">
<g id="surface1">
	<path d="M16,3c-1.6,0-3,1.4-3,3c0,1.1,0.6,2.1,1.6,2.6l-2.9,5.9L7,11.2C7.6,10.7,8,9.9,8,9c0-1.6-1.4-3-3-3S2,7.4,2,9
		c0,1.3,0.9,2.5,2.2,2.8L6,22v5h20v-5l1.8-10.2C29.1,11.5,30,10.3,30,9c0-1.6-1.4-3-3-3s-3,1.4-3,3c0,0.9,0.4,1.7,1,2.2l-4.6,3.3
		l-2.9-5.9C18.4,8.1,19,7.1,19,6C19,4.4,17.6,3,16,3z M16,5c0.6,0,1,0.4,1,1s-0.4,1-1,1s-1-0.4-1-1S15.4,5,16,5z M5,8
		c0.6,0,1,0.4,1,1s-0.4,1-1,1S4,9.6,4,9S4.4,8,5,8z M27,8c0.6,0,1,0.4,1,1s-0.4,1-1,1s-1-0.4-1-1S26.4,8,27,8z M16,10.2l3.1,6.2
		l1.5,0.4l5-3.6L24.2,21H7.8l-1.4-7.8l5,3.6l1.5-0.4L16,10.2z M8,23h16v2H8V23z"/>
</g>
</svg>
