<?xml version="1.0" encoding="utf-8"?>
<!-- Generator: Adobe Illustrator 23.0.4, SVG Export Plug-In . SVG Version: 6.00 Build 0)  -->
<svg version="1.1" id="レイヤー_1" xmlns="http://www.w3.org/2000/svg" xmlns:xlink="http://www.w3.org/1999/xlink" x="0px"
	 y="0px" viewBox="0 0 50 50" style="enable-background:new 0 0 50 50;" xml:space="preserve">
<path d="M25,2c-1.6,0-3,1.4-3,3c0,1.3,0.8,2.4,2,2.8V15h2V7.8c1.2-0.4,2-1.5,2-2.8C28,3.4,26.6,2,25,2z M25,4c0.6,0,1,0.4,1,1
	s-0.4,1-1,1s-1-0.4-1-1S24.4,4,25,4z M7,11c-1.6,0-3,1.4-3,3s1.4,3,3,3c0.6,0,1.2-0.2,1.7-0.6l5.3,3.4V18c0-0.1,0-0.3,0-0.4
	l-4.2-2.8C9.9,14.6,10,14.3,10,14C10,12.4,8.6,11,7,11z M43,11c-1.6,0-3,1.4-3,3c0,0.3,0.1,0.6,0.1,0.8L36,17.6c0,0.1,0,0.3,0,0.4
	v1.9l5.3-3.4c0.5,0.3,1.1,0.6,1.7,0.6c1.6,0,3-1.4,3-3S44.6,11,43,11z M7,13c0.6,0,1,0.4,1,1s-0.4,1-1,1s-1-0.4-1-1S6.4,13,7,13z
	 M43,13c0.6,0,1,0.4,1,1s-0.4,1-1,1s-1-0.4-1-1S42.4,13,43,13z M17,17c-0.6,0-1,0.4-1,1v14c0,0.6,0.4,1,1,1h16c0.6,0,1-0.4,1-1V18
	c0-0.6-0.4-1-1-1H17z M18,19h14v12H18V19z M23,21c-0.6,0-1,0.4-1,1s0.4,1,1,1c0,0,0,0,0,0h4c0.6,0,1-0.4,1-1s-0.4-1-1-1c0,0,0,0,0,0
	H23z M14,30.1l-5.3,3.4C8.2,33.2,7.6,33,7,33c-1.6,0-3,1.4-3,3s1.4,3,3,3s3-1.4,3-3c0-0.3-0.1-0.6-0.1-0.8l4.2-2.8
	c0-0.1,0-0.3,0-0.4V30.1z M36,30.1V32c0,0.1,0,0.3,0,0.4l4.2,2.8C40.1,35.4,40,35.7,40,36c0,1.6,1.4,3,3,3s3-1.4,3-3s-1.4-3-3-3
	c-0.6,0-1.2,0.2-1.7,0.6L36,30.1z M7,35c0.6,0,1,0.4,1,1s-0.4,1-1,1s-1-0.4-1-1S6.4,35,7,35z M24,35v7.2c-1.2,0.4-2,1.5-2,2.8
	c0,1.6,1.4,3,3,3s3-1.4,3-3c0-1.3-0.8-2.4-2-2.8V35H24z M43,35c0.6,0,1,0.4,1,1s-0.4,1-1,1s-1-0.4-1-1S42.4,35,43,35z M25,44
	c0.6,0,1,0.4,1,1s-0.4,1-1,1s-1-0.4-1-1S24.4,44,25,44z"/>
</svg>
