<?xml version="1.0" encoding="UTF-8"?>
<svg xmlns="http://www.w3.org/2000/svg" xmlns:xlink="http://www.w3.org/1999/xlink" viewBox="0 0 32 32" version="1.1" fill="#152b7b"><g id="surface1" fill="#152b7b"><path style=" " d="M 10 3 C 5.59375 3 2 6.59375 2 11 C 2 13.949219 3.613281 16.519531 6 17.90625 L 6 27 L 28 27 L 28 7 L 23 7 L 23 6 L 21 6 L 21 7 L 16.90625 7 C 15.519531 4.613281 12.949219 3 10 3 Z M 10 5 C 13.324219 5 16 7.675781 16 11 C 16 14.324219 13.324219 17 10 17 C 6.675781 17 4 14.324219 4 11 C 4 7.675781 6.675781 5 10 5 Z M 9 7 L 9 11.5625 L 7.28125 13.28125 L 8.71875 14.71875 L 10.71875 12.71875 L 11 12.40625 L 11 7 Z M 17.71875 9 L 21 9 L 21 10 L 23 10 L 23 9 L 26 9 L 26 11 L 18 11 C 18 10.304688 17.886719 9.644531 17.71875 9 Z M 17.71875 13 L 26 13 L 26 25 L 8 25 L 8 18.71875 C 8.644531 18.886719 9.304688 19 10 19 C 13.710938 19 16.820313 16.4375 17.71875 13 Z M 18 17 L 18 19 L 20 19 L 20 17 Z M 22 17 L 22 19 L 24 19 L 24 17 Z M 10 21 L 10 23 L 12 23 L 12 21 Z M 14 21 L 14 23 L 16 23 L 16 21 Z M 18 21 L 18 23 L 20 23 L 20 21 Z M 22 21 L 22 23 L 24 23 L 24 21 Z " fill="#152b7b"/></g></svg>
