<?xml version="1.0" encoding="utf-8"?>
<!-- Generator: Adobe Illustrator 24.1.0, SVG Export Plug-In . SVG Version: 6.00 Build 0)  -->
<svg version="1.1" id="レイヤー_1" xmlns="http://www.w3.org/2000/svg" xmlns:xlink="http://www.w3.org/1999/xlink" x="0px"
	 y="0px" viewBox="0 0 32 32" style="enable-background:new 0 0 32 32;" xml:space="preserve">
<style type="text/css">
	.st0{fill:#FFFFFF;}
</style>
<path class="st0" d="M7,7c-1.6,0-3,1.4-3,3v12c0,1.6,1.4,3,3,3h18c1.6,0,3-1.4,3-3V10c0-1.6-1.4-3-3-3H7z M7,9h18c0.6,0,1,0.4,1,1
	v12c0,0.6-0.4,1-1,1H7c-0.6,0-1-0.4-1-1V10C6,9.4,6.4,9,7,9z M8,15c-0.6,0-1,0.4-1,1c0,0.6,0.4,1,1,1s1-0.4,1-1C9,15.4,8.6,15,8,15z
	"/>
</svg>
