<?xml version="1.0" encoding="utf-8"?>
<!-- Generator: Adobe Illustrator 24.1.0, SVG Export Plug-In . SVG Version: 6.00 Build 0)  -->
<svg version="1.1" id="レイヤー_1" xmlns="http://www.w3.org/2000/svg" xmlns:xlink="http://www.w3.org/1999/xlink" x="0px"
	 y="0px" viewBox="0 0 32 32" style="enable-background:new 0 0 32 32;" xml:space="preserve">
<style type="text/css">
	.st0{fill:#FFFFFF;}
</style>
<path class="st0" d="M17,3v2h2.6L16,8.6l-2-2L8.6,12h2.8L14,9.4l2,2l5-5V9h2V3H17z M3,13v16h26V13H3z M6.9,15h18.2
	C25,15.2,25,15.3,25,15.5c0,0.8,0.7,1.5,1.5,1.5c0.2,0,0.3,0,0.5-0.1v8.2C26.8,25,26.7,25,26.5,25c-0.8,0-1.5,0.7-1.5,1.5
	c0,0.2,0,0.3,0.1,0.5H6.9C7,26.8,7,26.7,7,26.5C7,25.7,6.3,25,5.5,25c-0.2,0-0.3,0-0.5,0.1v-8.2C5.2,17,5.3,17,5.5,17
	C6.3,17,7,16.3,7,15.5C7,15.3,7,15.2,6.9,15z M16,17c-2.2,0-4,1.8-4,4v1h0.2c0.4,1.7,1.9,3,3.8,3s3.3-1.3,3.8-3H20v-1
	C20,18.8,18.2,17,16,17z M16,19c1.2,0,2,0.8,2,2s-0.8,2-2,2s-2-0.8-2-2S14.8,19,16,19z M9,19.5c-0.8,0-1.5,0.7-1.5,1.5
	s0.7,1.5,1.5,1.5s1.5-0.7,1.5-1.5S9.8,19.5,9,19.5z M23,19.5c-0.8,0-1.5,0.7-1.5,1.5s0.7,1.5,1.5,1.5s1.5-0.7,1.5-1.5
	S23.8,19.5,23,19.5z"/>
</svg>
