<?xml version="1.0" encoding="utf-8"?>
<!-- Generator: Adobe Illustrator 24.1.0, SVG Export Plug-In . SVG Version: 6.00 Build 0)  -->
<svg version="1.1" id="レイヤー_1" xmlns="http://www.w3.org/2000/svg" xmlns:xlink="http://www.w3.org/1999/xlink" x="0px"
	 y="0px" viewBox="0 0 32 32" style="enable-background:new 0 0 32 32;" xml:space="preserve">
<style type="text/css">
	.st0{fill:#FFFFFF;}
</style>
<path class="st0" d="M24,14.5l5.4-5.4L23,2.6L17.6,8h-3.7C13.4,5.7,11.4,4,9,4C6.2,4,4,6.2,4,9c0,2.4,1.7,4.4,4,4.9V18H4v10h10V18
	h-4v-4.1c1.9-0.4,3.5-2,3.9-3.9h3.6l4.5,4.5H24z M23,5.5l3.6,3.6L23,12.7l-3.6-3.6L23,5.5z M9,6c1.7,0,3,1.3,3,3s-1.3,3-3,3
	s-3-1.3-3-3S7.3,6,9,6z M6,20h6v6H6V20z"/>
<path class="st0" d="M23,13.3c-2.6,0-4.7,2.1-4.7,4.7c0,1.6,0.8,3.1,2.1,3.9c-2.4,1-4.1,3.4-4.1,6.2h1.3c0-3,2.4-5.4,5.4-5.4
	s5.4,2.4,5.4,5.4h1.3c0-2.8-1.7-5.1-4.1-6.2c1.2-0.8,2.1-2.3,2.1-3.9C27.7,15.4,25.6,13.3,23,13.3z M23,14.6c1.9,0,3.4,1.5,3.4,3.4
	s-1.5,3.4-3.4,3.4s-3.4-1.5-3.4-3.4S21.1,14.6,23,14.6z"/>
</svg>
