<?xml version="1.0" encoding="utf-8"?>
<!-- Generator: Adobe Illustrator 24.1.0, SVG Export Plug-In . SVG Version: 6.00 Build 0)  -->
<svg version="1.1" id="レイヤー_1" xmlns="http://www.w3.org/2000/svg" xmlns:xlink="http://www.w3.org/1999/xlink" x="0px"
	 y="0px" viewBox="0 0 32 32" style="enable-background:new 0 0 32 32;" xml:space="preserve">
<style type="text/css">
	.st0{fill:#FFFFFF;}
</style>
<path class="st0" d="M24,14.5l5.4-5.4L23,2.6L17.6,8h-3.7C13.4,5.7,11.4,4,9,4C6.2,4,4,6.2,4,9c0,2.4,1.7,4.4,4,4.9V18H4v10h10V18
	h-4v-4.1c1.9-0.4,3.5-2,3.9-3.9h3.6l4.5,4.5H24z M23,5.5l3.6,3.6L23,12.7l-3.6-3.6L23,5.5z M9,6c1.7,0,3,1.3,3,3s-1.3,3-3,3
	s-3-1.3-3-3S7.3,6,9,6z M6,20h6v6H6V20z"/>
<path class="st0" d="M16.6,14.1V28h5.9v-2.1h1.1V28h5.9V14.1H16.6z M17.6,15.2h10.7V27h-3.8v-2.1h-3.2V27h-3.8V15.2H17.6z
	 M18.7,16.3v1.1h2.1v-1.1H18.7z M21.9,16.3v1.1H24v-1.1H21.9z M25.1,16.3v1.1h2.1v-1.1H25.1z M18.7,18.4v1.1h2.1v-1.1H18.7z
	 M21.9,18.4v1.1H24v-1.1H21.9z M25.1,18.4v1.1h2.1v-1.1H25.1z M18.7,20.6v1.1h2.1v-1.1H18.7z M21.9,20.6v1.1H24v-1.1H21.9z
	 M25.1,20.6v1.1h2.1v-1.1H25.1z M18.7,22.7v1.1h2.1v-1.1H18.7z M21.9,22.7v1.1H24v-1.1H21.9z M25.1,22.7v1.1h2.1v-1.1H25.1z
	 M18.7,24.9V26h2.1v-1.1H18.7z M25.1,24.9V26h2.1v-1.1H25.1z"/>
</svg>
