<?xml version="1.0" encoding="utf-8"?>
<!-- Generator: Adobe Illustrator 24.1.0, SVG Export Plug-In . SVG Version: 6.00 Build 0)  -->
<svg version="1.1" id="レイヤー_1" xmlns="http://www.w3.org/2000/svg" xmlns:xlink="http://www.w3.org/1999/xlink" x="0px"
	 y="0px" viewBox="0 0 32 32" style="enable-background:new 0 0 32 32;" xml:space="preserve">
<style type="text/css">
	.st0{fill:#FFFFFF;}
</style>
<path class="st0" d="M19.4,4c-1.9,0-3.5,1.6-3.5,3.5s1.6,3.5,3.5,3.5s3.5-1.6,3.5-3.5S21.4,4,19.4,4z M19.4,6c0.8,0,1.5,0.7,1.5,1.5
	S20.3,9,19.4,9s-1.5-0.7-1.5-1.5S18.6,6,19.4,6z M14.4,9c-0.5,0.1-1,0.3-1.3,0.7c-2.4,3-2.1,7.2-2.1,7.3l0,0.3l3.4,3.8l1.2,5.8h2.1
	l-1.4-6.8L13,16.6c0-0.9,0.1-3.6,1.6-5.5l1.2,3.7c0.1,0.4,0.4,0.7,0.7,1l3.8,2.7l1.2-1.6l-3.8-2.7l-1.3-3.8
	c-0.2-0.7-0.8-1.2-1.5-1.3C14.8,9,14.6,9,14.4,9z M22.2,17.9l-1,1.5l1,7.6h1.3L22.2,17.9z M11.4,19.3L9.9,27h2l1.2-5.8L11.4,19.3z"
	/>
</svg>
