<?xml version="1.0" encoding="utf-8"?>
<!-- Generator: Adobe Illustrator 24.1.0, SVG Export Plug-In . SVG Version: 6.00 Build 0)  -->
<svg version="1.1" id="レイヤー_1" xmlns="http://www.w3.org/2000/svg" xmlns:xlink="http://www.w3.org/1999/xlink" x="0px"
	 y="0px" viewBox="0 0 32 32" style="enable-background:new 0 0 32 32;" xml:space="preserve">
<style type="text/css">
	.st0{fill:#FFFFFF;}
</style>
<path class="st0" d="M6,4.6l-5.7,5.7l1.4,1.4L5,8.4V20c0,3.3,2.7,6,6,6s6-2.7,6-6v-8c0-2.2,1.8-4,4-4s4,1.8,4,4v11.6l-3.3-3.3
	l-1.4,1.4l5.7,5.7l5.7-5.7l-1.4-1.4L27,23.6V12c0-3.3-2.7-6-6-6s-6,2.7-6,6v8c0,2.2-1.8,4-4,4s-4-1.8-4-4V8.4l3.3,3.3l1.4-1.4L6,4.6
	z"/>
</svg>
