<?xml version="1.0" encoding="utf-8"?>
<!-- Generator: Adobe Illustrator 24.1.0, SVG Export Plug-In . SVG Version: 6.00 Build 0)  -->
<svg version="1.1" id="レイヤー_1" xmlns="http://www.w3.org/2000/svg" xmlns:xlink="http://www.w3.org/1999/xlink" x="0px"
	 y="0px" viewBox="0 0 32 32" style="enable-background:new 0 0 32 32;" xml:space="preserve">
<style type="text/css">
	.st0{fill:#FFFFFF;}
</style>
<path class="st0" d="M10.3,5.3L7,8.6L5.7,7.3L4.3,8.7l2,2L7,11.4l0.7-0.7l4-4L10.3,5.3z M15,7v2h13V7H15z M10.3,13.3L7,16.6
	l-1.3-1.3l-1.4,1.4l2,2L7,19.4l0.7-0.7l4-4L10.3,13.3z M15,15v2h13v-2H15z M10.3,21.3L7,24.6l-1.3-1.3l-1.4,1.4l2,2L7,27.4l0.7-0.7
	l4-4L10.3,21.3z M15,23v2h13v-2H15z"/>
</svg>
