<?xml version="1.0" encoding="utf-8"?>
<!-- Generator: Adobe Illustrator 24.1.0, SVG Export Plug-In . SVG Version: 6.00 Build 0)  -->
<svg version="1.1" id="レイヤー_1" xmlns="http://www.w3.org/2000/svg" xmlns:xlink="http://www.w3.org/1999/xlink" x="0px"
	 y="0px" viewBox="0 0 48 48" style="enable-background:new 0 0 48 48;" xml:space="preserve">
<style type="text/css">
	.st0{fill:#ECEFF1;}
	.st1{fill:#FFFFFF;}
	.st2{fill:#C4C4C4;}
</style>
<path class="st0" d="M2,10h44v27H2V10z"/>
<path class="st1" d="M2,10h44v3H2V10z M2,16h44v3H2V16z M2,22h44v3H2V22z M2,28h44v3H2V28z M2,34h44v3H2V34z"/>
<path class="st1" d="M2,10h21v15H2V10z"/>
<g>
	<path class="st2" d="M4.2,12l0.5,1l1,0.2L5,13.9L5.2,15l-0.9-0.5l-1,0.5l0.2-1.1l-0.8-0.8l1-0.2L4.2,12z M8.2,12l0.5,1l1,0.2
		L9,13.9L9.2,15l-0.9-0.5l-1,0.5l0.2-1.1l-0.8-0.8l1-0.2L8.2,12z M12.2,12l0.5,1l1,0.2L13,13.9l0.2,1.1l-0.9-0.5l-1,0.5l0.2-1.1
		l-0.8-0.8l1-0.2L12.2,12z M16.2,12l0.5,1l1,0.2L17,13.9l0.2,1.1l-0.9-0.5l-1,0.5l0.2-1.1l-0.8-0.8l1-0.2L16.2,12z M20,12l0.5,1
		l1,0.2L20.7,14l0.2,1.1L20,14.5L19.1,15l0.2-1.1l-0.8-0.8l1-0.2L20,12z M4.2,20l0.5,1l1,0.2L5,21.9L5.2,23l-0.9-0.5l-1,0.5l0.2-1.1
		l-0.8-0.8l1-0.2L4.2,20z M8.2,20l0.5,1l1,0.2L9,21.9L9.2,23l-0.9-0.5l-1,0.5l0.2-1.1l-0.8-0.8l1-0.2L8.2,20z M12.2,20l0.5,1l1,0.2
		L13,21.9l0.2,1.1l-0.9-0.5l-1,0.5l0.2-1.1l-0.8-0.8l1-0.2L12.2,20z M16.2,20l0.5,1l1,0.2L17,21.9l0.2,1.1l-0.9-0.5l-1,0.5l0.2-1.1
		l-0.8-0.8l1-0.2L16.2,20z M20,20l0.5,1l1,0.2L20.7,22l0.2,1.1L20,22.5L19.1,23l0.2-1.1l-0.8-0.8l1-0.2L20,20z M5.2,16l0.5,1l1,0.2
		L6,17.9L6.2,19l-0.9-0.5l-1,0.5l0.2-1.1l-0.8-0.8l1-0.2L5.2,16z M9.2,16l0.5,1l1,0.2L10,17.9l0.2,1.1l-0.9-0.5l-1,0.5l0.2-1.1
		l-0.8-0.8l1-0.2L9.2,16z M13.2,16l0.5,1l1,0.2L14,17.9l0.2,1.1l-0.9-0.5l-1,0.5l0.2-1.1l-0.8-0.8l1-0.2L13.2,16z M17.2,16l0.5,1
		l1,0.2L18,17.9l0.2,1.1l-0.9-0.5l-1,0.5l0.2-1.1l-0.8-0.8l1-0.2L17.2,16z M21,16l0.5,1l1,0.2L21.7,18l0.2,1.1L21,18.5L20.1,19
		l0.2-1.1l-0.8-0.8l1-0.2L21,16z"/>
</g>
</svg>
