<?xml version="1.0" encoding="utf-8"?>
<!-- Generator: Adobe Illustrator 24.1.0, SVG Export Plug-In . SVG Version: 6.00 Build 0)  -->
<svg version="1.1" id="レイヤー_1" xmlns="http://www.w3.org/2000/svg" xmlns:xlink="http://www.w3.org/1999/xlink" x="0px"
	 y="0px" viewBox="0 0 32 32" style="enable-background:new 0 0 32 32;" xml:space="preserve">
<style type="text/css">
	.st0{fill:#FFFFFF;}
</style>
<path class="st0" d="M9,4v1H5v22h22V5h-4V4h-2v1H11V4H9z M7,7h2v1h2V7h10v1h2V7h2v2H7V7z M7,11h18v14H7V11z M13,13v2h2v-2H13z
	 M17,13v2h2v-2H17z M21,13v2h2v-2H21z M9,17v2h2v-2H9z M13,17v2h2v-2H13z M17,17v2h2v-2H17z M21,17v2h2v-2H21z M9,21v2h2v-2H9z
	 M13,21v2h2v-2H13z M17,21v2h2v-2H17z"/>
</svg>
