<?xml version="1.0" encoding="utf-8"?>
<!-- Generator: Adobe Illustrator 24.1.0, SVG Export Plug-In . SVG Version: 6.00 Build 0)  -->
<svg version="1.1" id="レイヤー_1" xmlns="http://www.w3.org/2000/svg" xmlns:xlink="http://www.w3.org/1999/xlink" x="0px"
	 y="0px" viewBox="0 0 32 32" style="enable-background:new 0 0 32 32;" xml:space="preserve">
<style type="text/css">
	.st0{fill:#FFFFFF;}
</style>
<path class="st0" d="M16,6c-3.8,0-7.1,0.4-9.1,0.7c-1.7,0.2-3,1.5-3.3,3.2C3.3,11.3,3,13.4,3,16s0.3,4.7,0.5,6.1
	c0.3,1.7,1.7,2.9,3.3,3.2c2,0.3,5.4,0.7,9.1,0.7s7.1-0.4,9.1-0.7c1.7-0.2,3-1.5,3.3-3.2c0.3-1.4,0.5-3.5,0.5-6.1s-0.3-4.7-0.5-6.1
	c-0.3-1.7-1.7-2.9-3.3-3.2C23.1,6.4,19.8,6,16,6z M16,8c3.6,0,6.9,0.4,8.8,0.7c0.8,0.1,1.5,0.8,1.7,1.6c0.2,1.3,0.5,3.3,0.5,5.8
	c0,2.5-0.3,4.4-0.5,5.7c-0.2,0.8-0.8,1.5-1.7,1.6c-2,0.3-5.2,0.7-8.8,0.7s-6.9-0.4-8.8-0.7c-0.8-0.1-1.5-0.8-1.7-1.6
	C5.3,20.4,5,18.5,5,16c0-2.5,0.3-4.4,0.5-5.8c0.2-0.8,0.8-1.5,1.7-1.6C9.1,8.4,12.4,8,16,8z M13,10.3v11.4l1.5-0.8l7-4L23,16
	l-1.5-0.9l-7-4L13,10.3z M15,13.7l4,2.3l-4,2.3V13.7z"/>
</svg>
