<?xml version="1.0" encoding="utf-8"?>
<!-- Generator: Adobe Illustrator 24.1.0, SVG Export Plug-In . SVG Version: 6.00 Build 0)  -->
<svg version="1.1" id="レイヤー_1" xmlns="http://www.w3.org/2000/svg" xmlns:xlink="http://www.w3.org/1999/xlink" x="0px"
	 y="0px" viewBox="0 0 32 32" style="enable-background:new 0 0 32 32;" xml:space="preserve">
<style type="text/css">
	.st0{fill:#FFFFFF;}
</style>
<path class="st0" d="M16,3C8.8,3,3,8.8,3,16s5.8,13,13,13s13-5.8,13-13S23.2,3,16,3z M14.9,5.1c0,0,0.1,0,0.1,0v11.3l0.3,0.3
	l7.8,7.8C21.2,26.1,18.7,27,16,27C9.9,27,5,22.1,5,16C5,10.3,9.3,5.6,14.9,5.1z M17,5.1c5.3,0.5,9.5,4.7,9.9,9.9H17V5.1z M18.4,17
	h8.5c-0.2,2.3-1.1,4.4-2.5,6.1L18.4,17z"/>
</svg>
