<?xml version="1.0" encoding="utf-8"?>
<!-- Generator: Adobe Illustrator 24.1.0, SVG Export Plug-In . SVG Version: 6.00 Build 0)  -->
<svg version="1.1" id="レイヤー_1" xmlns="http://www.w3.org/2000/svg" xmlns:xlink="http://www.w3.org/1999/xlink" x="0px"
	 y="0px" viewBox="0 0 32 32" style="enable-background:new 0 0 32 32;" xml:space="preserve">
<style type="text/css">
	.st0{fill:#FFFFFF;}
</style>
<path class="st0" d="M6,3v26h20V3H6z M8,5h16v22H8V5z M10,7v6h12V7H10z M12,9h8v2h-8V9z M11,15v2h2v-2H11z M15,15v2h2v-2H15z M19,15
	v2h2v-2H19z M11,19v2h2v-2H11z M15,19v2h2v-2H15z M19,19v2h2v-2H19z M11,23v2h2v-2H11z M15,23v2h2v-2H15z M19,23v2h2v-2H19z"/>
</svg>
