<?xml version="1.0" encoding="utf-8"?>
<!-- Generator: Adobe Illustrator 24.1.0, SVG Export Plug-In . SVG Version: 6.00 Build 0)  -->
<svg version="1.1" id="レイヤー_1" xmlns="http://www.w3.org/2000/svg" xmlns:xlink="http://www.w3.org/1999/xlink" x="0px"
	 y="0px" viewBox="0 0 32 32" style="enable-background:new 0 0 32 32;" xml:space="preserve">
<style type="text/css">
	.st0{fill:#FFFFFF;}
</style>
<path class="st0" d="M10,3v2h2V3H10z M20,3v2h2V3H20z M10,7v2h2V7H10z M20,7v2h2V7H20z M27.2,7.4l-3.4,5.1l-4.1-3.3l-0.9-0.7
	l-0.6,0.9l-4.4,7.1l-5.2-3.4l-0.8-0.5l-0.6,0.7l-4,5l1.6,1.2l3.4-4.3l5.2,3.5l0.9,0.6l0.5-0.9l4.4-7.1l4.1,3.3l0.8,0.7l0.6-0.9l4-6
	L27.2,7.4z M10,11v2h2v-2H10z M20,15v2h2v-2H20z M10,19v2h2v-2H10z M20,19v2h2v-2H20z M10,23v2h2v-2H10z M20,23v2h2v-2H20z M3,27v2
	h26v-2H3z"/>
</svg>
