<?xml version="1.0" encoding="utf-8"?>
<!-- Generator: Adobe Illustrator 24.1.0, SVG Export Plug-In . SVG Version: 6.00 Build 0)  -->
<svg version="1.1" id="レイヤー_1" xmlns="http://www.w3.org/2000/svg" xmlns:xlink="http://www.w3.org/1999/xlink" x="0px"
	 y="0px" viewBox="0 0 32 32" style="enable-background:new 0 0 32 32;" xml:space="preserve">
<style type="text/css">
	.st0{fill:#FFFFFF;}
</style>
<path class="st0" d="M9,6c-2.8,0-5,2.2-5,5c0,1.5,0.7,2.9,1.8,3.8C3.5,16,2,18.3,2,21h2c0-2.8,2.2-5,5-5c1.4,0,2.5,0.5,3.4,1.3
	C12.1,17.9,12,18.4,12,19c0,1.1,0.5,2.1,1.2,2.8C11.9,22.7,11,24.3,11,26h2c0-1.7,1.3-3,3-3s3,1.3,3,3h2c0-1.7-0.9-3.3-2.2-4.2
	c0.7-0.7,1.2-1.7,1.2-2.8c0-0.6-0.1-1.1-0.4-1.7c0.9-0.9,2-1.3,3.4-1.3c2.8,0,5,2.2,5,5h2c0-2.7-1.5-5-3.8-6.2
	c1.1-0.9,1.8-2.3,1.8-3.8c0-2.8-2.2-5-5-5s-5,2.2-5,5c0,1.5,0.7,2.9,1.8,3.8c-0.5,0.3-1,0.6-1.4,1C17.7,15.3,16.9,15,16,15
	s-1.7,0.3-2.4,0.8c-0.4-0.4-0.9-0.8-1.4-1c1.1-0.9,1.8-2.3,1.8-3.8C14,8.2,11.8,6,9,6z M9,8c1.7,0,3,1.3,3,3s-1.3,3-3,3s-3-1.3-3-3
	S7.3,8,9,8z M23,8c1.7,0,3,1.3,3,3s-1.3,3-3,3s-3-1.3-3-3S21.3,8,23,8z M16,17c1.1,0,2,0.9,2,2s-0.9,2-2,2s-2-0.9-2-2S14.9,17,16,17
	z"/>
</svg>
