<?xml version="1.0" encoding="utf-8"?>
<!-- Generator: Adobe Illustrator 24.1.0, SVG Export Plug-In . SVG Version: 6.00 Build 0)  -->
<svg version="1.1" id="レイヤー_1" xmlns="http://www.w3.org/2000/svg" xmlns:xlink="http://www.w3.org/1999/xlink" x="0px"
	 y="0px" viewBox="0 0 32 32" style="enable-background:new 0 0 32 32;" xml:space="preserve">
<style type="text/css">
	.st0{fill:#FFFFFF;}
</style>
<path class="st0" d="M15.9,4L15.9,4L4.8,6.5L4,6.7v18.7l0.8,0.2l11,2.4l0.1,0H18v-3h10V7H18V4H15.9z M16,6V26L6,23.8V8.2L16,6z
	 M18,9h8v14h-8v-2h2v-2h-2v-1h2v-2h-2v-1h2v-2h-2v-1h2v-2h-2V9z M21,10v2h4v-2H21z M14.2,11l-2.3,0.3L10.6,14
	c-0.1,0.4-0.2,0.7-0.3,0.9h0c-0.1-0.3-0.2-0.6-0.2-0.8l-0.6-2.3l-2.1,0.2L7.2,12L9,16l-2,4l2.2,0.2l0.9-2.5c0.1-0.3,0.2-0.6,0.2-0.7
	h0c0.1,0.3,0.1,0.6,0.2,0.7l1.3,2.9l2.4,0.3l-2.7-5L14.2,11z M21,13v2h4v-2H21z M21,16v2h4v-2H21z M21,19v2h4v-2H21z"/>
</svg>
