<?xml version="1.0" encoding="utf-8"?>
<!-- Generator: Adobe Illustrator 24.1.0, SVG Export Plug-In . SVG Version: 6.00 Build 0)  -->
<svg version="1.1" id="レイヤー_1" xmlns="http://www.w3.org/2000/svg" xmlns:xlink="http://www.w3.org/1999/xlink" x="0px"
	 y="0px" viewBox="0 0 32 32" style="enable-background:new 0 0 32 32;" xml:space="preserve">
<style type="text/css">
	.st0{fill:#FFFFFF;}
</style>
<path class="st0" d="M10,4C8.4,4,7,5.4,7,7v14H4v4c0,1.6,1.4,3,3,3h14c0,0,0,0,0,0c1.6,0,3-1.4,3-3V11h4V7c0-1.6-1.4-3-3-3H10z
	 M10,6h12.2C22.1,6.3,22,6.6,22,7v6h-2v2h2v2h-4v2h4v6c0,0.6-0.4,1-1,1c-0.6,0-1-0.4-1-1l0-4H9v-9h2v-2H9V7C9,6.4,9.4,6,10,6z M25,6
	c0.6,0,1,0.4,1,1v2h-2V7C24,6.4,24.4,6,25,6z M6,23h12l0,2c0,0.3,0.1,0.7,0.2,1H7c-0.6,0-1-0.4-1-1V23z"/>
</svg>
