<?xml version="1.0" encoding="utf-8"?>
<!-- Generator: Adobe Illustrator 24.1.0, SVG Export Plug-In . SVG Version: 6.00 Build 0)  -->
<svg version="1.1" id="レイヤー_1" xmlns="http://www.w3.org/2000/svg" xmlns:xlink="http://www.w3.org/1999/xlink" x="0px"
	 y="0px" viewBox="0 0 32 32" style="enable-background:new 0 0 32 32;" xml:space="preserve">
<style type="text/css">
	.st0{fill:#FFFFFF;}
	.st1{display:none;}
	.st2{display:inline;fill:#19323F;}
</style>
<path class="st0" d="M9,4v1H5v22h22V5h-4V4h-2v1H11V4H9z M7,7h2v1h2V7h10v1h2V7h2v2H7V7z M7,11h18v14H7V11z"/>
<g>
	<path class="st0" d="M14.3,17.9c0,0.5-0.1,0.9-0.3,1.3c-0.2,0.4-0.5,0.7-0.8,0.9c-0.3,0.2-0.6,0.3-0.9,0.3c-0.3,0-0.6,0.1-1,0.1
		H9.8v-5.1h1.6c0.4,0,0.7,0,1,0.1s0.6,0.2,0.9,0.3c0.3,0.2,0.6,0.5,0.8,0.9C14.2,17,14.3,17.4,14.3,17.9z M13,17.9
		c0-0.3-0.1-0.6-0.2-0.9c-0.1-0.2-0.3-0.4-0.5-0.6c-0.2-0.1-0.4-0.1-0.5-0.2c-0.2,0-0.4,0-0.7,0h0v3.2h0c0.3,0,0.5,0,0.7,0
		c0.2,0,0.4-0.1,0.6-0.2c0.2-0.1,0.4-0.3,0.5-0.5S13,18.2,13,17.9z"/>
	<path class="st0" d="M17.1,20c-0.1,0.1-0.2,0.1-0.2,0.2c-0.1,0.1-0.2,0.1-0.3,0.2c-0.1,0.1-0.2,0.1-0.3,0.1c-0.1,0-0.2,0-0.4,0
		c-0.3,0-0.6-0.1-0.8-0.3c-0.2-0.2-0.3-0.5-0.3-0.9c0-0.3,0.1-0.5,0.2-0.7c0.1-0.2,0.3-0.3,0.5-0.4c0.2-0.1,0.5-0.2,0.8-0.2
		s0.6-0.1,1-0.1v0c0-0.2-0.1-0.4-0.2-0.4c-0.2-0.1-0.4-0.1-0.7-0.1c-0.1,0-0.3,0-0.5,0.1c-0.2,0.1-0.4,0.1-0.6,0.2H15v-0.9
		c0.1,0,0.3-0.1,0.6-0.1c0.3,0,0.5-0.1,0.8-0.1c0.7,0,1.1,0.1,1.4,0.3c0.3,0.2,0.5,0.6,0.5,1v2.6h-1.2V20z M17.1,19.5v-0.8
		c-0.2,0-0.4,0-0.5,0.1s-0.2,0-0.4,0.1c-0.1,0-0.2,0.1-0.2,0.2c-0.1,0.1-0.1,0.2-0.1,0.3c0,0.2,0,0.3,0.1,0.4
		c0.1,0.1,0.2,0.1,0.4,0.1c0.1,0,0.2,0,0.3-0.1S17,19.5,17.1,19.5z"/>
	<path class="st0" d="M22.8,16.6l-1.9,5.2h-1.3l0.6-1.5l-1.4-3.7H20l0.8,2.4l0.8-2.4H22.8z"/>
</g>
<g class="st1">
	<path class="st2" d="M13.7,15.4l-1.2,5.1h-1.3l-0.8-3.1l-0.7,3.1H8.5l-1.2-5.1h1.2l0.6,3.4l0.8-3.4h1.2l0.7,3.4l0.7-3.4H13.7z"/>
	<path class="st2" d="M15.9,20.6c-0.7,0-1.2-0.2-1.5-0.5c-0.4-0.3-0.5-0.8-0.5-1.5c0-0.6,0.2-1.1,0.5-1.5c0.3-0.4,0.8-0.6,1.4-0.6
		c0.5,0,0.9,0.2,1.2,0.5c0.3,0.3,0.4,0.8,0.4,1.4v0.4h-2.4c0,0.2,0,0.3,0.1,0.4c0.1,0.1,0.1,0.2,0.2,0.3c0.1,0.1,0.2,0.1,0.3,0.2
		c0.1,0,0.3,0,0.4,0c0.1,0,0.3,0,0.4,0c0.1,0,0.2-0.1,0.3-0.1c0.1,0,0.2-0.1,0.2-0.1c0.1-0.1,0.1-0.1,0.2-0.1h0.1v1
		c-0.1,0-0.2,0.1-0.2,0.1c-0.1,0-0.2,0.1-0.3,0.1c-0.1,0-0.2,0.1-0.4,0.1C16.2,20.5,16,20.6,15.9,20.6z M16.2,18
		c0-0.3-0.1-0.4-0.2-0.6c-0.1-0.1-0.3-0.2-0.5-0.2c-0.2,0-0.4,0.1-0.5,0.2c-0.1,0.1-0.2,0.3-0.2,0.6H16.2z"/>
	<path class="st2" d="M19.5,20.6c-0.7,0-1.2-0.2-1.5-0.5c-0.4-0.3-0.5-0.8-0.5-1.5c0-0.6,0.2-1.1,0.5-1.5c0.3-0.4,0.8-0.6,1.4-0.6
		c0.5,0,0.9,0.2,1.2,0.5c0.3,0.3,0.4,0.8,0.4,1.4v0.4h-2.4c0,0.2,0,0.3,0.1,0.4c0.1,0.1,0.1,0.2,0.2,0.3c0.1,0.1,0.2,0.1,0.3,0.2
		c0.1,0,0.3,0,0.4,0c0.1,0,0.3,0,0.4,0c0.1,0,0.2-0.1,0.3-0.1c0.1,0,0.2-0.1,0.2-0.1c0.1-0.1,0.1-0.1,0.2-0.1h0.1v1
		c-0.1,0-0.2,0.1-0.2,0.1c-0.1,0-0.2,0.1-0.3,0.1c-0.1,0-0.2,0.1-0.4,0.1C19.8,20.5,19.7,20.6,19.5,20.6z M19.9,18
		c0-0.3-0.1-0.4-0.2-0.6c-0.1-0.1-0.3-0.2-0.5-0.2c-0.2,0-0.4,0.1-0.5,0.2c-0.1,0.1-0.2,0.3-0.2,0.6H19.9z"/>
	<path class="st2" d="M24.9,20.5h-1.3l-1-1.7L22.4,19v1.4h-1.1v-5.3h1.1v3l1-1.5h1.3l-1.2,1.7L24.9,20.5z"/>
</g>
</svg>
