<?xml version="1.0" encoding="utf-8"?>
<!-- Generator: Adobe Illustrator 24.1.0, SVG Export Plug-In . SVG Version: 6.00 Build 0)  -->
<svg version="1.1" id="Layer_1" xmlns="http://www.w3.org/2000/svg" xmlns:xlink="http://www.w3.org/1999/xlink" x="0px" y="0px"
	 viewBox="0 0 40 40" style="enable-background:new 0 0 40 40;" xml:space="preserve">
<style type="text/css">
	.st0{fill:#FFFFFF;}
	.st1{fill:none;stroke:#FFFFFF;stroke-miterlimit:10;}
</style>
<path class="st0" d="M26.1,21.7h-2.4l-3.3,8.9h2.2c0,0,2.2-7,2.2-7.3H25c0,0.3,2.3,7.3,2.3,7.3h2.2L26.1,21.7z"/>
<rect x="21.9" y="26.6" class="st0" width="5.7" height="1.6"/>
<path class="st1" d="M35.4,25.3c0-4.8-4.2-8.7-9.6-9.2c0.2-0.7,0.3-1.4,0.3-2.2C26.1,9,21.4,5,15.6,5C9.8,5,5.1,9,5.1,13.9
	c0,2.1,0.8,4.1,2.3,5.7l0.2,0.2L7.4,20c-0.6,1.4-1.3,2.6-2,3.6c1.7-0.1,3.7-0.7,5.5-1.5l0.2-0.1h0.2c0.9,0.4,1.7,0.6,2.6,0.7
	c-0.3,0.8-0.4,1.7-0.4,2.6c0,5.2,4.9,9.3,10.9,9.3c1.6,0,3.1-0.3,4.5-0.8c2,1,4.4,1.6,6.5,1.6c-1-1.2-1.8-2.8-2.5-4.2
	C34.4,29.6,35.4,27.6,35.4,25.3z M14.6,22.8c0.3,0,0.7,0,1,0c4.6,0,8.5-2.5,9.9-5.9"/>
<path class="st0" d="M15.1,10.3c1.3,0,2.4,1.5,2.4,3.2s-1.1,3.2-2.4,3.2s-2.4-1.5-2.4-3.2S13.8,10.3,15.1,10.3 M15.1,8.7
	c-2.3,0-4,2.2-4,4.9s1.8,4.9,4,4.9s4-2.2,4-4.9S17.4,8.7,15.1,8.7L15.1,8.7z"/>
<polygon class="st0" points="15.1,16.8 17.6,16.8 20,19.2 17.6,19.2 "/>
</svg>
