<?xml version="1.0" encoding="utf-8"?>
<!-- Generator: Adobe Illustrator 24.1.0, SVG Export Plug-In . SVG Version: 6.00 Build 0)  -->
<svg version="1.1" id="レイヤー_1" xmlns="http://www.w3.org/2000/svg" xmlns:xlink="http://www.w3.org/1999/xlink" x="0px"
	 y="0px" viewBox="0 0 32 32" style="enable-background:new 0 0 32 32;" xml:space="preserve">
<style type="text/css">
	.st0{fill:#FFFFFF;}
</style>
<path class="st0" d="M2,5v16h28V5H2z M5.9,7h20.2C26,7.2,26,7.3,26,7.5C26,8.3,26.7,9,27.5,9c0.2,0,0.3,0,0.5-0.1v8.2
	C27.8,17,27.7,17,27.5,17c-0.8,0-1.5,0.7-1.5,1.5c0,0.2,0,0.3,0.1,0.5H5.9C6,18.8,6,18.7,6,18.5C6,17.7,5.3,17,4.5,17
	c-0.2,0-0.3,0-0.5,0.1V8.9C4.2,9,4.3,9,4.5,9C5.3,9,6,8.3,6,7.5C6,7.3,6,7.2,5.9,7z M16,9c-2.2,0-4,1.8-4,4v1h0.2
	c0.4,1.7,1.9,3,3.8,3s3.3-1.3,3.8-3H20v-1C20,10.8,18.2,9,16,9z M16,11c1.2,0,2,0.8,2,2s-0.8,2-2,2s-2-0.8-2-2S14.8,11,16,11z
	 M9,11.5c-0.8,0-1.5,0.7-1.5,1.5s0.7,1.5,1.5,1.5s1.5-0.7,1.5-1.5S9.8,11.5,9,11.5z M23,11.5c-0.8,0-1.5,0.7-1.5,1.5
	s0.7,1.5,1.5,1.5s1.5-0.7,1.5-1.5S23.8,11.5,23,11.5z M2,22v2h1c0,0,14.3,0,24.7,2.7L29,27v-5h-2v1.1C26.8,23,26.7,23,26.5,23
	c-0.7,0-1.3,0.5-1.4,1.1C14.8,22,3,22,3,22H2z"/>
</svg>
