<?xml version="1.0" encoding="utf-8"?>
<!-- Generator: Adobe Illustrator 24.1.0, SVG Export Plug-In . SVG Version: 6.00 Build 0)  -->
<svg version="1.1" id="レイヤー_1" xmlns="http://www.w3.org/2000/svg" xmlns:xlink="http://www.w3.org/1999/xlink" x="0px"
	 y="0px" viewBox="0 0 32 32" style="enable-background:new 0 0 32 32;" xml:space="preserve">
<style type="text/css">
	.st0{fill:#FFFFFF;}
</style>
<path class="st0" d="M21,4c-1.8,0-3.4,0.3-4.7,1C15,5.6,14,6.6,14,8v4c0,0.1,0,0.3,0.1,0.4c-0.9-0.2-2-0.4-3.1-0.4
	c-1.8,0-3.4,0.3-4.7,1C5,13.6,4,14.6,4,16v8c0,1.4,1,2.4,2.3,3s2.9,1,4.7,1s3.4-0.3,4.7-1s2.3-1.7,2.3-3v-0.4c0.9,0.2,1.9,0.4,3,0.4
	c1.8,0,3.4-0.3,4.7-1s2.3-1.7,2.3-3V8c0-1.4-1-2.4-2.3-3C24.4,4.3,22.8,4,21,4z M21,6c1.5,0,2.9,0.3,3.8,0.8S26,7.7,26,8
	c0,0.3-0.3,0.8-1.2,1.2S22.5,10,21,10s-2.9-0.3-3.8-0.8S16,8.3,16,8c0-0.3,0.3-0.8,1.2-1.2S19.5,6,21,6z M16,10.8
	c0.1,0.1,0.2,0.1,0.3,0.2c1.3,0.6,2.9,1,4.7,1s3.4-0.3,4.7-1c0.1-0.1,0.2-0.1,0.3-0.2V12c0,0.3-0.3,0.8-1.2,1.2S22.5,14,21,14
	s-2.9-0.3-3.8-0.8S16,12.3,16,12V10.8z M11,14c1.5,0,2.9,0.3,3.8,0.8S16,15.7,16,16s-0.3,0.8-1.2,1.2S12.5,18,11,18
	c-1.5,0-2.9-0.3-3.8-0.8S6,16.3,6,16s0.3-0.8,1.2-1.2S9.5,14,11,14z M26,14.8V16c0,0.3-0.3,0.8-1.2,1.2S22.5,18,21,18
	c-1.1,0-2.2-0.2-3-0.5V16c0-0.1,0-0.3-0.1-0.4c0.9,0.2,2,0.4,3.1,0.4c1.8,0,3.4-0.3,4.7-1C25.8,15,25.9,14.9,26,14.8z M6,18.8
	C6.1,18.9,6.2,19,6.3,19c1.3,0.6,2.9,1,4.7,1s3.4-0.3,4.7-1c0.1-0.1,0.2-0.1,0.3-0.2V20c0,0.3-0.3,0.8-1.2,1.2S12.5,22,11,22
	c-1.5,0-2.9-0.3-3.8-0.8S6,20.3,6,20V18.8z M26,18.8V20c0,0.3-0.3,0.8-1.2,1.2S22.5,22,21,22c-1.1,0-2.2-0.2-3-0.4v-1.9
	c0.9,0.2,1.9,0.4,3,0.4c1.8,0,3.4-0.3,4.7-1C25.8,19,25.9,18.9,26,18.8z M6,22.8C6.1,22.9,6.2,23,6.3,23c1.3,0.6,2.9,1,4.7,1
	s3.4-0.3,4.7-1c0.1-0.1,0.2-0.1,0.3-0.2V24c0,0.3-0.3,0.8-1.2,1.2S12.5,26,11,26c-1.5,0-2.9-0.3-3.8-0.8S6,24.3,6,24V22.8z"/>
</svg>
