<?xml version="1.0" encoding="utf-8"?>
<!-- Generator: Adobe Illustrator 24.1.0, SVG Export Plug-In . SVG Version: 6.00 Build 0)  -->
<svg version="1.1" id="レイヤー_1" xmlns="http://www.w3.org/2000/svg" xmlns:xlink="http://www.w3.org/1999/xlink" x="0px"
	 y="0px" viewBox="0 0 32 32" style="enable-background:new 0 0 32 32;" xml:space="preserve">
<style type="text/css">
	.st0{fill:#FFFFFF;}
</style>
<path class="st0" d="M10,5C6.8,5,3.6,6.3,3.6,6.3L3,6.6V27h11.3c0.3,0.6,1,1,1.7,1s1.4-0.4,1.7-1H29V6.6l-0.6-0.3
	c0,0-3.1-1.3-6.4-1.3c-2.9,0-5.5,1-6,1.2C15.5,6,12.9,5,10,5z M10,7c1.9,0,4,0.6,5,1v16.1c-1.1-0.4-2.9-0.9-5-0.9
	c-2.1,0-3.8,0.5-5,0.9V8C5.8,7.7,7.8,7,10,7z M22,7c2.2,0,4.2,0.7,5,1v16.1c-1.2-0.4-2.9-0.9-5-0.9c-2.1,0-3.9,0.5-5,0.9V8
	C18,7.6,20.1,7,22,7z M22,10c-0.6,0-1,0.4-1,1s0.4,1,1,1s1-0.4,1-1S22.6,10,22,10z M20,13v2h1v5h2v-7H20z"/>
</svg>
