<?xml version="1.0" encoding="utf-8"?>
<!-- Generator: Adobe Illustrator 24.1.0, SVG Export Plug-In . SVG Version: 6.00 Build 0)  -->
<svg version="1.1" id="レイヤー_1" xmlns="http://www.w3.org/2000/svg" xmlns:xlink="http://www.w3.org/1999/xlink" x="0px"
	 y="0px" viewBox="0 0 32 32" style="enable-background:new 0 0 32 32;" xml:space="preserve">
<style type="text/css">
	.st0{fill:#FFFFFF;}
</style>
<path class="st0" d="M5,4l0.1,23.1C5,27.6,5.4,28,5.8,28h14.4l6.8-7V4l-3,2l-2-2l-2,2l-2-2l-2,2l-2-2l-2,2l-2-2L8,6L5,4z M10,6.7
	l0.7,0.7C11,7.7,11.5,7.9,12,7.9s1-0.2,1.3-0.6L14,6.7l0.7,0.7C15,7.7,15.5,7.9,16,7.9s1-0.2,1.3-0.6L18,6.7l0.7,0.7
	C19,7.7,19.5,7.9,20,7.9s1-0.2,1.3-0.6L22,6.7l0.7,0.7C23,7.7,23.5,7.9,24,7.9c0.4,0,0.7-0.1,1-0.3V21h-6v1h1v1h-1v1h1v2H7V7.6
	c0.3,0.2,0.7,0.3,1,0.3c0.5,0,1-0.2,1.3-0.6L10,6.7z M8,9v2h16V9H8z M8,13v9h9v-9H8z M19,13v1h5v-1H19z M11,15v1l1-1h3l1,1h-3v2l1-1
	h2v2l-1,1h-4l-1-1v-3L11,15z M13,18l-1,1h3v-1H13z M12,19v-3h-1v3H12z M19,15v1h5v-1H19z M19,17v1h5v-1H19z M19,19v1h5v-1H19z M8,23
	v1h9v-1H8z"/>
</svg>
