<?xml version="1.0" encoding="utf-8"?>
<!-- Generator: Adobe Illustrator 24.1.0, SVG Export Plug-In . SVG Version: 6.00 Build 0)  -->
<svg version="1.1" id="レイヤー_2_1_" xmlns="http://www.w3.org/2000/svg" xmlns:xlink="http://www.w3.org/1999/xlink" x="0px"
	 y="0px" viewBox="0 0 32 32" style="enable-background:new 0 0 32 32;" xml:space="preserve">
<style type="text/css">
	.st0{fill:none;stroke:#FFFFFF;stroke-miterlimit:10;}
	.st1{fill:#FFFFFF;}
</style>
<g>
	<polygon class="st0" points="5.9,5 26.1,5 26.1,27 22.4,22.8 19.4,27 5.9,27 5.9,11.4 9.1,8.5 	"/>
	<g>
		<g>
			<path class="st1" d="M10.8,13.8c0.9,0,1.6,0.2,2,0.6c0.4,0.3,0.6,0.8,0.6,1.5c0,0.8-0.3,1.4-0.9,1.8c-0.5,0.4-1.2,0.6-2,0.6H8.7
				V18c0.5,0,0.6-0.1,0.6-0.7v-2.7c0-0.6-0.1-0.6-0.6-0.7v-0.3h2.1V13.8z M10.2,17.4c0,0.5,0.1,0.7,0.6,0.7c0.9,0,1.5-0.7,1.5-2
				c0-0.7-0.2-1.2-0.5-1.5s-0.7-0.4-1.1-0.4c-0.3,0-0.4,0.1-0.4,0.1c-0.1,0.1-0.1,0.2-0.1,0.4V17.4z"/>
		</g>
		<g>
			<path class="st1" d="M17.9,17.1c0,0.3-0.2,1-0.3,1.3h-3.7v-0.2c0.9-1.3,1.8-2.7,2.7-4.1h-1.1c-0.5,0-0.6,0.1-0.8,0.3
				c-0.1,0.1-0.2,0.3-0.3,0.6h-0.3c0-0.4,0.1-1.1,0.1-1.4h0.2c0.1,0.2,0.2,0.2,0.4,0.2h2.8v0.1c-0.9,1.3-1.8,2.7-2.6,4.1
				c0.2,0,0.4,0,0.9,0c0.8,0,1,0,1.2-0.2s0.4-0.5,0.5-0.8L17.9,17.1z"/>
		</g>
		<g>
			<path class="st1" d="M23.3,14.1c-0.5,0.1-0.6,0.1-0.6,0.7v2.7c0,0.6,0.1,0.6,0.6,0.7v0.3h-2.2v-0.3c0.6-0.1,0.6-0.1,0.6-0.7v-1.3
				h-1.9v1.3c0,0.6,0.1,0.6,0.6,0.7v0.3h-2.2v-0.3c0.5-0.1,0.6-0.1,0.6-0.7v-2.7c0-0.6-0.1-0.6-0.6-0.7v-0.3h2.2v0.3
				c-0.5,0-0.6,0.1-0.6,0.7v1h1.9v-1c0-0.6-0.1-0.6-0.6-0.7v-0.3h2.2V14.1z"/>
		</g>
	</g>
</g>
</svg>
