<?xml version="1.0" encoding="utf-8"?>
<!-- Generator: Adobe Illustrator 24.1.0, SVG Export Plug-In . SVG Version: 6.00 Build 0)  -->
<svg version="1.1" id="レイヤー_1" xmlns="http://www.w3.org/2000/svg" xmlns:xlink="http://www.w3.org/1999/xlink" x="0px"
	 y="0px" viewBox="0 0 32 32" style="enable-background:new 0 0 32 32;" xml:space="preserve">
<style type="text/css">
	.st0{fill:#FFFFFF;}
</style>
<path class="st0" d="M6,3v26h11v-2H8V5h10v6h6v6h2V9.6L19.4,3H6z M20,6.4L22.6,9H20V6.4z M16,12c-3.3,0-6,2.7-6,6s2.7,6,6,6
	c1.1,0,2.1-0.3,3-0.8V32h13V19H21.9c0.1-0.3,0.1-0.7,0.1-1C22,14.7,19.3,12,16,12z M16,14v4h4c0,2.2-1.8,4-4,4s-4-1.8-4-4
	S13.8,14,16,14z M21.2,21H30v9h-9v-8.7C21.1,21.2,21.1,21.1,21.2,21z"/>
</svg>
