<?xml version="1.0" encoding="utf-8"?>
<!-- Generator: Adobe Illustrator 24.1.0, SVG Export Plug-In . SVG Version: 6.00 Build 0)  -->
<svg version="1.1" id="レイヤー_1" xmlns="http://www.w3.org/2000/svg" xmlns:xlink="http://www.w3.org/1999/xlink" x="0px"
	 y="0px" viewBox="0 0 32 32" style="enable-background:new 0 0 32 32;" xml:space="preserve">
<style type="text/css">
	.st0{fill:#FFFFFF;}
</style>
<path class="st0" d="M9,5v1H5v22h22V6h-4V5h-2v1H11V5H9z M7,8h2v1h2V8h10v1h2V8h2v2H7V8z M7,12h18v14H7V12z M13.2,14.8l-1.4,1.4
	l2.8,2.8l-2.8,2.8l1.4,1.4l2.8-2.8l2.8,2.8l1.4-1.4L17.4,19l2.8-2.8l-1.4-1.4L16,17.6L13.2,14.8z"/>
</svg>
