<?xml version="1.0" encoding="utf-8"?>
<!-- Generator: Adobe Illustrator 24.1.0, SVG Export Plug-In . SVG Version: 6.00 Build 0)  -->
<svg version="1.1" id="レイヤー_1" xmlns="http://www.w3.org/2000/svg" xmlns:xlink="http://www.w3.org/1999/xlink" x="0px"
	 y="0px" viewBox="0 0 32 32" style="enable-background:new 0 0 32 32;" xml:space="preserve">
<style type="text/css">
	.st0{fill:#FFFFFF;}
</style>
<path class="st0" d="M6.8,2.4L5.4,3.8l2.1,2.1l1.4-1.4L6.8,2.4z M25.2,2.4l-2.1,2.1l1.4,1.4l2.1-2.1L25.2,2.4z M16,3
	c-0.3,0-0.7,0-1,0.1c0,0,0,0,0,0c-4.1,0.5-7.3,3.7-7.8,7.8C6.7,14.1,8,17.1,10.2,19c1,0.8,1.5,1.9,1.8,3v6h2.3c0.3,0.6,1,1,1.7,1
	s1.4-0.4,1.7-1H20v-4h0.1v-1.2c0-1.5,0.8-2.9,2-4.1c1.7-1.7,2.9-4,2.9-6.7C25,7.1,20.9,3,16,3z M16,5c3.9-0.1,7,3.1,7,7
	c0,2.1-1,3.9-2.3,5.3l0,0c-1.3,1.3-2.2,2.9-2.4,4.7h-4.4c-0.2-1.7-1-3.4-2.3-4.6c-1.8-1.5-2.8-3.8-2.5-6.3c0.4-3.2,3-5.7,6.1-6
	C15.5,5.1,15.7,5,16,5z M2,12v2h3v-2H2z M27,12v2h3v-2H27z M7.5,20.1l-2.1,2.1l1.4,1.4l2.1-2.1L7.5,20.1z M24.5,20.1l-1.4,1.4
	l2.1,2.1l1.4-1.4L24.5,20.1z M14,24h4v2h-4V24z"/>
</svg>
