<?xml version="1.0" encoding="utf-8"?>
<!-- Generator: Adobe Illustrator 24.1.0, SVG Export Plug-In . SVG Version: 6.00 Build 0)  -->
<svg version="1.1" xmlns="http://www.w3.org/2000/svg" xmlns:xlink="http://www.w3.org/1999/xlink" x="0px" y="0px"
	 viewBox="0 0 32 32" style="enable-background:new 0 0 32 32;" xml:space="preserve">
<style type="text/css">
	.st0{display:none;}
	.st1{display:inline;}
	.st2{fill:#19323F;}
	.st3{fill-rule:evenodd;clip-rule:evenodd;fill:#19323F;}
	.st4{fill:none;}
	.st5{display:inline;fill:#113179;}
	.st6{display:inline;fill:#FFFFFF;}
	.st7{fill:#FFFFFF;}
	.st8{display:inline;fill-rule:evenodd;clip-rule:evenodd;fill:#FFFFFF;}
</style>
<g id="レイヤー_1" class="st0">
	<g id="Element_2_" class="st1">
		<path class="st2" d="M14.7,8c0,1.7-2.8,3.2-6.4,3.2C4.8,11.1,2,9.7,2,8c0-1.7,2.8-3.2,6.4-3.2C11.8,4.8,14.7,6.2,14.7,8z"/>
		<path class="st2" d="M8.3,12.8c-3,0-5.6-1.1-6.2-2.5C2,10.5,2,10.8,2,11c0,1.7,2.8,3.2,6.4,3.2c3.5,0,6.4-1.4,6.4-3.2
			c0-0.2-0.1-0.5-0.2-0.7C13.9,11.7,11.4,12.8,8.3,12.8z"/>
		<path class="st2" d="M8.3,15.8c-3,0-5.6-1.1-6.2-2.5C2,13.6,2,13.8,2,14.1c0,1.7,2.8,3.2,6.4,3.2c3.5,0,6.4-1.4,6.4-3.2
			c0-0.2-0.1-0.5-0.2-0.7C13.9,14.8,11.4,15.8,8.3,15.8z"/>
		<path class="st2" d="M8.3,18.9c-3,0-5.6-1.1-6.2-2.5C2,16.7,2,16.9,2,17.1c0,1.7,2.8,3.2,6.4,3.2c3.5,0,6.4-1.4,6.4-3.2
			c0-0.2-0.1-0.5-0.2-0.7C13.9,17.9,11.4,18.9,8.3,18.9z"/>
		<path class="st2" d="M8.3,22c-3,0-5.6-1.1-6.2-2.5C2,19.7,2,20,2,20.2c0,1.7,2.8,3.2,6.4,3.2c3.5,0,6.4-1.4,6.4-3.2
			c0-0.2-0.1-0.5-0.2-0.7C13.9,20.9,11.4,22,8.3,22z"/>
		<path class="st2" d="M8.3,25.1c-3,0-5.6-1.1-6.2-2.5C2,22.8,2,23,2,23.3c0,1.7,2.8,3.2,6.4,3.2c3.5,0,6.4-1.4,6.4-3.2
			c0-0.2-0.1-0.5-0.2-0.7C13.9,24,11.4,25.1,8.3,25.1z"/>
		<path class="st2" d="M30.3,13.9c0,1.7-2.8,3.2-6.4,3.2c-3.5,0-6.4-1.4-6.4-3.2c0-1.7,2.8-3.2,6.4-3.2
			C27.4,10.7,30.3,12.1,30.3,13.9z"/>
		<path class="st2" d="M23.9,18.7c-3,0-5.6-1.1-6.2-2.5c-0.1,0.2-0.2,0.4-0.2,0.7c0,1.7,2.8,3.2,6.4,3.2c3.5,0,6.4-1.4,6.4-3.2
			c0-0.2-0.1-0.5-0.2-0.7C29.5,17.6,27,18.7,23.9,18.7z"/>
		<path class="st2" d="M23.9,21.7c-3,0-5.6-1.1-6.2-2.5c-0.1,0.2-0.2,0.4-0.2,0.7c0,1.7,2.8,3.2,6.4,3.2c3.5,0,6.4-1.4,6.4-3.2
			c0-0.2-0.1-0.5-0.2-0.7C29.5,20.7,27,21.7,23.9,21.7z"/>
		<path class="st2" d="M23.9,24.8c-3,0-5.6-1.1-6.2-2.5c-0.1,0.2-0.2,0.4-0.2,0.7c0,1.7,2.8,3.2,6.4,3.2c3.5,0,6.4-1.4,6.4-3.2
			c0-0.2-0.1-0.5-0.2-0.7C29.5,23.7,27,24.8,23.9,24.8z"/>
	</g>
	<g id="Element_1_" class="st1">
		<g>
			<g>
				<path class="st2" d="M10,28.2c-3.1,0-5.7-2.5-5.7-5.7c0-3.1,2.5-5.7,5.7-5.7s5.7,2.5,5.7,5.7C15.7,25.7,13.1,28.2,10,28.2z
					 M10,18.4c-2.3,0-4.2,1.9-4.2,4.2s1.9,4.2,4.2,4.2s4.2-1.9,4.2-4.2S12.3,18.4,10,18.4z"/>
			</g>
			<g>
				<path class="st2" d="M10.2,23.8c-0.2,0-0.4-0.1-0.5-0.2l-2.3-2.2c-0.3-0.3-0.3-0.8,0-1c0.3-0.3,0.8-0.3,1,0l1.8,1.7l1.1-1.2
					c0.3-0.3,0.7-0.3,1,0c0.3,0.3,0.3,0.7,0,1l-1.6,1.7C10.6,23.8,10.4,23.8,10.2,23.8C10.2,23.8,10.2,23.8,10.2,23.8z"/>
			</g>
		</g>
		<g>
			<g>
				<path class="st2" d="M21.5,3.8c-0.5-0.7-1.4-0.8-2-0.3l-4,2.9l6.4-2.2L21.5,3.8z"/>
				<path class="st2" d="M24.3,6.1c-0.2-0.6-0.8-1-1.4-1c-0.2,0-0.3,0-0.5,0.1c0,0,0,0,0,0l-4.9,1.7h6.2h0.9L24.3,6.1z"/>
			</g>
			<path class="st2" d="M26.5,13c-0.3-0.1-0.6-0.2-1-0.2h-1.2c-1.3,0-2.4,1.1-2.4,2.4c0,1.3,1.1,2.4,2.4,2.4h1.2
				c0.3,0,0.7-0.1,1-0.2c0.8-0.4,1.4-1.2,1.4-2.2C27.9,14.2,27.3,13.4,26.5,13z M24.9,16.2c-0.6,0-1-0.5-1-1c0-0.6,0.5-1,1-1
				c0.6,0,1,0.5,1,1C26,15.7,25.5,16.2,24.9,16.2z"/>
		</g>
		<path class="st2" d="M26.5,9.3c0-0.3-0.1-0.5-0.3-0.7C26,8.3,25.8,8.1,25.5,8c-0.1,0-0.3-0.1-0.5-0.1h-0.1h-0.5h-10h-1h-0.7h-1.6
			h-0.3c-0.4,0-0.8,0.2-1.1,0.5C9.5,8.5,9.4,8.8,9.4,9c0,0.1,0,0.2,0,0.3v0.2v1.3v4.5v0.1c0.2,0,0.4,0,0.6,0c3.8,0,7,3.1,7,7
			c0,0.2,0,0.4,0,0.6h1.4h0.2h1.6H25c0.8,0,1.5-0.7,1.5-1.5v-0.7v-0.6v-0.6v-1.2c-0.3,0.1-0.6,0.1-1,0.1h-1.2
			c-1.9,0-3.4-1.5-3.4-3.4c0-1.9,1.5-3.4,3.4-3.4h1.2c0.3,0,0.7,0.1,1,0.1v-1v-0.2L26.5,9.3C26.5,9.3,26.5,9.3,26.5,9.3z"/>
	</g>
	<g id="Element_3_" class="st1">
		<g>
			<path class="st2" d="M20.3,6.4c-0.2-0.9-1.1-1.6-2.1-1.4L6.7,7.4h13.8L20.3,6.4z"/>
		</g>
		<path class="st2" d="M19.3,19v-2.7c0-1.2,1-2.3,2.3-2.3H25v-3.4c0-1-0.8-1.8-1.8-1.8H6.7c-1,0-1.8,0.8-1.8,1.8v14.1
			c0,1,0.8,1.8,1.8,1.8h16.6c1,0,1.8-0.8,1.8-1.8v-3.4h-3.5C20.3,21.2,19.3,20.2,19.3,19z"/>
		<path class="st2" d="M26,15h-1h-3.5c-0.7,0-1.3,0.6-1.3,1.3V19c0,0.7,0.6,1.3,1.3,1.3H25h1c0.7,0,1.3-0.6,1.3-1.3v-2.7
			C27.3,15.5,26.7,15,26,15z M22.6,18.9c-0.7,0-1.2-0.6-1.2-1.2c0-0.7,0.6-1.2,1.2-1.2c0.7,0,1.2,0.6,1.2,1.2
			C23.8,18.3,23.2,18.9,22.6,18.9z"/>
	</g>
	<g id="Element_4_" class="st1">
		<g>
			<path class="st2" d="M5.1,22.3c-0.4,0-0.7-0.1-1-0.4c-0.5-0.6-0.5-1.5,0-2l7.4-7.1l6,5.4l8-8c0.6-0.6,1.5-0.6,2,0
				c0.6,0.6,0.6,1.5,0,2L17.6,22l-6-5.4l-5.5,5.3C5.9,22.2,5.5,22.3,5.1,22.3z"/>
		</g>
		<polygon class="st2" points="26,18.9 28.7,16.2 28.6,9 21.4,8.9 18.8,11.6 25.9,11.7 		"/>
	</g>
	<g id="Element_5_" class="st1">
		<g>
			<path class="st2" d="M22.9,6.4h-2.4l1.6,2.4H23v17H9.3v-17h0.9l1.6-2.4H9.4c-1.2,0-2.2,1-2.2,2.2v17.3c0,1.2,1,2.2,2.2,2.2h13.6
				c1.2,0,2.2-1,2.2-2.2V8.6C25.1,7.4,24.1,6.4,22.9,6.4z"/>
			<path class="st2" d="M20.6,8.8L19,6.4l-0.9-1.3l0,0c0-1.1-0.9-1.9-2-1.9c-1.1,0-2,0.9-2,1.9l0,0l-0.9,1.3l-1.6,2.4l-0.5,0.7
				l4.9,0l4.9,0L20.6,8.8z M16.1,4.4c0.4,0,0.7,0.3,0.7,0.7c0,0.4-0.3,0.7-0.7,0.7c-0.4,0-0.7-0.3-0.7-0.7
				C15.4,4.7,15.8,4.4,16.1,4.4z"/>
		</g>
		<path class="st2" d="M20.2,21.3c0.5-0.5,0.4-1.3-0.1-1.8l-1.3-1.3c-0.5-0.5-0.5-1.4,0-1.9l1.3-1.3c0.5-0.5,0.6-1.3,0.1-1.8
			c-0.5-0.5-1.3-0.4-1.8,0.1l-1.3,1.3c-0.5,0.5-1.4,0.5-1.9,0l-1.3-1.3c-0.5-0.5-1.3-0.6-1.8-0.1c-0.5,0.5-0.4,1.3,0.1,1.8l1.3,1.3
			c0.5,0.5,0.5,1.4,0,1.9l-1.3,1.3c-0.5,0.5-0.6,1.3-0.1,1.8c0.5,0.5,1.3,0.4,1.8-0.1l1.3-1.3c0.5-0.5,1.4-0.5,1.9,0l1.3,1.3
			C18.9,21.7,19.7,21.8,20.2,21.3z"/>
	</g>
	<g id="Element_6_" class="st1">
		<path class="st2" d="M14.7,5.8C8.5,5.9,3.6,11,3.8,17.2C3.9,23.3,9,28.2,15.1,28.1c6.2-0.1,11.1-5.2,10.9-11.4L14.9,17L14.7,5.8z"
			/>
		<path class="st2" d="M17.3,3.1l0.2,11.2l11.2-0.2C28.5,7.9,23.4,3,17.3,3.1z"/>
	</g>
	<g id="Element_7_" class="st1">
		<path class="st2" d="M24,5H8.3C7,5,5.9,6.1,5.9,7.4v15.7c0,0.8,0.4,1.5,1,1.9v0.5c0,0.4,0.3,0.7,0.7,0.7h2c0.4,0,0.7-0.3,0.7-0.7
			v-0.1h11v0.1c0,0.4,0.3,0.7,0.7,0.7h2c0.4,0,0.7-0.3,0.7-0.7v-0.3c0.8-0.4,1.4-1.2,1.4-2.1V7.4C26.3,6.1,25.3,5,24,5z M8.5,8.9
			c0-0.7,0.6-1.3,1.3-1.3h12.7c0.7,0,1.3,0.6,1.3,1.3v12.7c0,0.7-0.6,1.3-1.3,1.3H9.8c-0.7,0-1.3-0.6-1.3-1.3V8.9z"/>
		<g>
			<path class="st2" d="M14.4,17.8c0.5,0.3,1.1,0.5,1.7,0.5c0.6,0,1.2-0.2,1.7-0.5l-1.7-1.7L14.4,17.8z"/>
			<path class="st2" d="M13.5,13.5C13.2,14,13,14.6,13,15.2c0,0.6,0.2,1.2,0.5,1.7l1.7-1.7L13.5,13.5z"/>
			<path class="st2" d="M17.8,12.6c-0.5-0.3-1.1-0.5-1.7-0.5c-0.6,0-1.2,0.2-1.7,0.5l1.7,1.7L17.8,12.6z"/>
			<path class="st2" d="M17,15.2l1.7,1.7c0.3-0.5,0.5-1.1,0.5-1.7c0-0.6-0.2-1.2-0.5-1.7L17,15.2z"/>
			<path class="st2" d="M22.5,8.7H9.8c-0.1,0-0.2,0.1-0.2,0.2v12.7c0,0.1,0.1,0.2,0.2,0.2h12.7c0.1,0,0.2-0.1,0.2-0.2V8.9
				C22.7,8.8,22.6,8.7,22.5,8.7z M16.1,19.8c-2.5,0-4.6-2-4.6-4.6c0-2.5,2-4.6,4.6-4.6c2.5,0,4.6,2,4.6,4.6
				C20.7,17.7,18.6,19.8,16.1,19.8z"/>
		</g>
	</g>
	<g id="Element_8_" class="st1">
		<g>
			<path class="st2" d="M12.3,15.9v-1.3c-0.9,0-1.8-0.3-2.4-0.6l0.4-1.6c0.6,0.3,1.4,0.6,2.3,0.6c0.8,0,1.3-0.3,1.3-0.9
				c0-0.5-0.4-0.9-1.5-1.2C11,10.4,10,9.7,10,8.3c0-1.2,0.9-2.2,2.4-2.5V4.5h1.4v1.2c0.9,0,1.6,0.2,2,0.5l-0.4,1.6
				c-0.4-0.2-1-0.5-2-0.5c-0.9,0-1.2,0.4-1.2,0.8c0,0.5,0.5,0.8,1.7,1.2c1.7,0.6,2.3,1.4,2.3,2.6c0,1.2-0.9,2.3-2.5,2.6v1.4H12.3z"
				/>
		</g>
		<g>
			<g>
				<g>
					<path class="st2" d="M19.3,20.8H6.4c-0.8,0-1.5-0.7-1.5-1.5c0-0.8,0.7-1.5,1.5-1.5h10.8l3.9-9.2h4.7c0.8,0,1.5,0.7,1.5,1.5
						c0,0.8-0.7,1.5-1.5,1.5h-2.7L19.3,20.8z"/>
				</g>
				<g>
					<path class="st2" d="M10.1,24.3c0,1.4-1.1,2.5-2.5,2.5c-1.4,0-2.5-1.1-2.5-2.5c0-1.4,1.1-2.5,2.5-2.5C9,21.9,10.1,23,10.1,24.3
						z"/>
				</g>
				<g>
					<path class="st2" d="M19.3,24.3c0,1.4-1.1,2.5-2.5,2.5c-1.4,0-2.5-1.1-2.5-2.5c0-1.4,1.1-2.5,2.5-2.5
						C18.2,21.9,19.3,23,19.3,24.3z"/>
				</g>
			</g>
		</g>
	</g>
	<g id="Element_9_" class="st1">
		<rect x="7.8" y="14" class="st2" width="4.7" height="9.9"/>
		<rect x="13.8" y="9.2" class="st2" width="4.6" height="14.7"/>
		<rect x="19.9" y="16.8" class="st2" width="4.6" height="7.1"/>
		<g>
			<path class="st2" d="M24.3,26.9H7.9c-1.7,0-3.1-1.4-3.1-3.1V7.5c0-1.7,1.4-3.1,3.1-3.1h16.3c1.7,0,3.1,1.4,3.1,3.1v16.3
				C27.4,25.5,26,26.9,24.3,26.9z M7.9,6.2c-0.7,0-1.3,0.6-1.3,1.3v16.3c0,0.7,0.6,1.3,1.3,1.3h16.3c0.7,0,1.3-0.6,1.3-1.3V7.5
				c0-0.7-0.6-1.3-1.3-1.3H7.9z"/>
		</g>
	</g>
	<g id="Element_10_" class="st1">
		<path class="st3" d="M20.2,21.4l2.5-5.2l-3.6-3.6L15.6,9l-5.2,2.5L6.4,22.9c-0.4,0.1-0.7,0.3-1,0.5C4.9,24,4.7,24.8,5,25.6
			l9.3-9.3c-0.1-0.6,0-1.2,0.4-1.6c0.7-0.7,1.7-0.7,2.4,0c0.7,0.7,0.7,1.7,0,2.4c-0.4,0.4-1.1,0.6-1.6,0.4l-9.3,9.3
			c0.7,0.3,1.6,0.1,2.2-0.5c0.3-0.3,0.5-0.6,0.5-1L20.2,21.4z"/>
		<path class="st3" d="M26.8,15.5c-0.7,0.7-2,0.7-2.7,0l-7.8-7.8c-0.7-0.7-0.7-2,0-2.7l0,0c0.7-0.7,2-0.7,2.7,0l7.8,7.8
			C27.5,13.5,27.5,14.7,26.8,15.5L26.8,15.5z"/>
	</g>
	<g id="Element_11_" class="st1">
		<g>
			<path class="st4" d="M19.4,12.1h-6.6c-1.5,0-2.7,1.2-2.7,2.7v6.6c0,1.5,1.2,2.7,2.7,2.7h6.6c1.5,0,2.7-1.2,2.7-2.7v-6.6
				C22.1,13.3,20.9,12.1,19.4,12.1z"/>
			<path class="st2" d="M22.3,7.8h-3v0.2c0,1.5-1.3,2.8-2.8,2.8h-0.9c-1.5,0-2.8-1.3-2.8-2.8V7.8h-3c-1.5,0-2.7,1.2-2.7,2.7v13.7
				c0,1.5,1.2,2.7,2.7,2.7h12.4c1.5,0,2.7-1.2,2.7-2.7V10.5C25,9,23.8,7.8,22.3,7.8z M22.1,21.5c0,1.5-1.2,2.7-2.7,2.7h-6.6
				c-1.5,0-2.7-1.2-2.7-2.7v-6.6c0-1.5,1.2-2.7,2.7-2.7h6.6c1.5,0,2.7,1.2,2.7,2.7V21.5z"/>
		</g>
		<path class="st2" d="M16.6,4.4h-0.9c-1.1,0-2,0.9-2,2v1.4v0.2c0,1.1,0.9,2,2,2h0.9c1.1,0,2-0.9,2-2V7.8V6.4
			C18.5,5.3,17.7,4.4,16.6,4.4z M16.1,7.8c-0.7,0-1.2-0.5-1.2-1.2c0-0.7,0.5-1.2,1.2-1.2c0.7,0,1.2,0.5,1.2,1.2
			C17.3,7.3,16.8,7.8,16.1,7.8z"/>
		<path class="st3" d="M19.8,20c-0.8-0.5-1.9-0.3-2.7-1.2c0,0-0.3-0.3,0.3-1c0.6-0.7,0.7-1.9,0.5-2.8c-0.2-0.9-1-1.5-1.9-1.5
			c-0.9,0-1.8,0.6-1.9,1.5c-0.2,0.9-0.1,2.1,0.5,2.8c0.6,0.7,0.3,1,0.3,1c-0.7,1-1.9,0.7-2.7,1.2c-0.8,0.5-0.6,1.8-0.6,1.8h4.3h4.3
			C20.4,21.7,20.6,20.5,19.8,20z"/>
	</g>
	<g id="Element_12_" class="st1">
		<ellipse class="st2" cx="16.1" cy="7.7" rx="6.6" ry="3.3"/>
		<path class="st2" d="M16.1,12.7c-3.2,0-5.8-1.1-6.5-2.6c-0.1,0.2-0.2,0.5-0.2,0.7c0,1.8,3,3.3,6.6,3.3c3.6,0,6.6-1.5,6.6-3.3
			c0-0.2-0.1-0.5-0.2-0.7C21.9,11.6,19.3,12.7,16.1,12.7z"/>
		<path class="st2" d="M16.1,15.9c-3.2,0-5.8-1.1-6.5-2.6c-0.1,0.2-0.2,0.5-0.2,0.7c0,1.8,3,3.3,6.6,3.3c3.6,0,6.6-1.5,6.6-3.3
			c0-0.2-0.1-0.5-0.2-0.7C21.9,14.8,19.3,15.9,16.1,15.9z"/>
		<path class="st2" d="M16.1,19.1c-3.2,0-5.8-1.1-6.5-2.6c-0.1,0.2-0.2,0.5-0.2,0.7c0,1.8,3,3.3,6.6,3.3c3.6,0,6.6-1.5,6.6-3.3
			c0-0.2-0.1-0.5-0.2-0.7C21.9,17.9,19.3,19.1,16.1,19.1z"/>
		<path class="st2" d="M16.1,22.2c-3.2,0-5.8-1.1-6.5-2.6c-0.1,0.2-0.2,0.5-0.2,0.7c0,1.8,3,3.3,6.6,3.3c3.6,0,6.6-1.5,6.6-3.3
			c0-0.2-0.1-0.5-0.2-0.7C21.9,21.1,19.3,22.2,16.1,22.2z"/>
		<path class="st2" d="M16.1,25.4c-3.2,0-5.8-1.1-6.5-2.6c-0.1,0.2-0.2,0.5-0.2,0.7c0,1.8,3,3.3,6.6,3.3c3.6,0,6.6-1.5,6.6-3.3
			c0-0.2-0.1-0.5-0.2-0.7C21.9,24.3,19.3,25.4,16.1,25.4z"/>
	</g>
	<g id="Element_13_" class="st1">
		<path class="st2" d="M24.8,4.5H7.4C6,4.5,4.9,5.6,4.9,7v17.3c0,1.4,1.1,2.5,2.5,2.5h17.4c1.4,0,2.5-1.1,2.5-2.5V7
			C27.4,5.6,26.2,4.5,24.8,4.5z M12.5,23.3c0,0.5-0.4,1-1,1H8.8c-0.5,0-1-0.4-1-1v-2.7c0-0.5,0.4-1,1-1h2.7c0.5,0,1,0.4,1,1V23.3z
			 M12.5,17.4c0,0.5-0.4,1-1,1H8.8c-0.5,0-1-0.4-1-1v-2.7c0-0.5,0.4-1,1-1h2.7c0.5,0,1,0.4,1,1V17.4z M18.6,23.3c0,0.5-0.4,1-1,1
			h-2.7c-0.5,0-1-0.4-1-1v-2.7c0-0.5,0.4-1,1-1h2.7c0.5,0,1,0.4,1,1V23.3z M18.6,17.4c0,0.5-0.4,1-1,1h-2.7c-0.5,0-1-0.4-1-1v-2.7
			c0-0.5,0.4-1,1-1h2.7c0.5,0,1,0.4,1,1V17.4z M24.8,23.3c0,0.5-0.4,1-1,1h-2.7c-0.5,0-1-0.4-1-1v-8.6c0-0.5,0.4-1,1-1h2.7
			c0.5,0,1,0.4,1,1V23.3z M24.8,12H7.7V7.3h17.1V12z"/>
	</g>
	<g id="Element_14_" class="st1">
		<path class="st2" d="M7.8,24.6c0,0.8-0.7,1.5-1.5,1.5l0,0c-0.8,0-1.5-0.7-1.5-1.5V7.4c0-0.8,0.7-1.5,1.5-1.5l0,0
			c0.8,0,1.5,0.7,1.5,1.5V24.6z"/>
		<path class="st2" d="M6.3,26.1c-0.8,0-1.5-0.7-1.5-1.5l0,0c0-0.8,0.7-1.5,1.5-1.5h17.2c0.8,0,1.5,0.7,1.5,1.5l0,0
			c0,0.8-0.7,1.5-1.5,1.5H6.3z"/>
		<g>
			<path class="st2" d="M9.7,21.8c-0.6,0-1.2-0.5-1.2-1.1c-0.1-0.7,0.4-1.3,1.1-1.4c0.5-0.1,10.9-1.4,11.9-11
				c0.1-0.7,0.7-1.2,1.4-1.1c0.7,0.1,1.2,0.7,1.1,1.4c-0.5,4.8-3.1,8.6-7.6,11c-3.3,1.8-6.4,2.2-6.5,2.2C9.8,21.8,9.7,21.8,9.7,21.8
				z"/>
		</g>
		<g>
			<path class="st2" d="M26,11.7c-0.4,0-0.8-0.2-1-0.5L22.8,8l-3,2.1c-0.6,0.4-1.4,0.3-1.7-0.3c-0.4-0.6-0.3-1.4,0.3-1.7L22,5.5
				c0.4-0.3,0.8-0.4,1.3-0.3c0.5,0.1,0.8,0.3,1.1,0.7L27,9.7c0.4,0.6,0.3,1.4-0.3,1.7C26.5,11.6,26.3,11.7,26,11.7z"/>
		</g>
		<path class="st2" d="M12.3,13.8c0,0.3-0.3,0.6-0.6,0.6H9.5c-0.3,0-0.6-0.3-0.6-0.6v-0.5c0-0.3,0.3-0.6,0.6-0.6h2.1
			c0.3,0,0.6,0.3,0.6,0.6V13.8z"/>
		<path class="st2" d="M17.1,13.8c0,0.3-0.3,0.6-0.6,0.6h-2.1c-0.3,0-0.6-0.3-0.6-0.6v-0.5c0-0.3,0.3-0.6,0.6-0.6h2.1
			c0.3,0,0.6,0.3,0.6,0.6V13.8z"/>
		<path class="st2" d="M20.5,21.4c-0.3,0-0.6-0.3-0.6-0.6v-2.1c0-0.3,0.3-0.6,0.6-0.6H21c0.3,0,0.6,0.3,0.6,0.6v2.1
			c0,0.3-0.3,0.6-0.6,0.6H20.5z"/>
	</g>
	<g id="Element_15_" class="st1">
		<g>
			<path class="st2" d="M16.1,26.9c-6.2,0-11.2-5-11.2-11.2s5-11.2,11.2-11.2s11.2,5,11.2,11.2S22.3,26.9,16.1,26.9z M16.1,5.2
				c-5.8,0-10.5,4.7-10.5,10.5s4.7,10.5,10.5,10.5s10.5-4.7,10.5-10.5S21.9,5.2,16.1,5.2z M16.1,22.6c-3.9,0-7-3.1-7-7s3.1-7,7-7
				s7,3.1,7,7S20,22.6,16.1,22.6z M16.1,9.4c-3.4,0-6.2,2.8-6.2,6.2s2.8,6.2,6.2,6.2s6.2-2.8,6.2-6.2S19.5,9.4,16.1,9.4z"/>
		</g>
		<g>
			<path class="st2" d="M16.1,22.2c-1.9,0-3.7-0.8-4.9-2.1l-3.3,2.6c2,2.3,4.9,3.8,8.2,3.8c4.1,0,7.7-2.3,9.5-5.7l-3.8-1.9
				C20.7,20.9,18.6,22.2,16.1,22.2z"/>
			<path class="st2" d="M16.1,9c0.2,0,0.3,0,0.5,0V4.8c-0.2,0-0.3,0-0.5,0c-0.2,0-0.3,0-0.5,0V9C15.8,9,16,9,16.1,9z"/>
			<path class="st2" d="M10.6,19.3l-3.3,2.6c0.2,0.3,0.4,0.5,0.6,0.8l3.3-2.6C11,19.8,10.8,19.6,10.6,19.3z"/>
			<path class="st2" d="M22.3,18.1c-0.1,0.3-0.3,0.6-0.4,0.9l3.8,1.9c0.2-0.3,0.3-0.6,0.4-0.9L22.3,18.1z"/>
		</g>
	</g>
</g>
<g id="レイヤー_3" class="st0">
	<rect class="st5" width="32" height="32"/>
</g>
<g id="レイヤー_2">
	<g id="Element_30_" class="st0">
		<path class="st6" d="M14.7,8c0,1.7-2.8,3.2-6.4,3.2C4.8,11.1,2,9.7,2,8c0-1.7,2.8-3.2,6.4-3.2C11.8,4.8,14.7,6.2,14.7,8z"/>
		<path class="st6" d="M8.3,12.8c-3,0-5.6-1.1-6.2-2.5C2,10.5,2,10.7,2,11c0,1.7,2.8,3.2,6.4,3.2c3.5,0,6.4-1.4,6.4-3.2
			c0-0.2-0.1-0.5-0.2-0.7C13.9,11.7,11.4,12.8,8.3,12.8z"/>
		<path class="st6" d="M8.3,15.8c-3,0-5.6-1.1-6.2-2.5C2,13.6,2,13.8,2,14c0,1.7,2.8,3.2,6.4,3.2c3.5,0,6.4-1.4,6.4-3.2
			c0-0.2-0.1-0.5-0.2-0.7C13.9,14.8,11.4,15.8,8.3,15.8z"/>
		<path class="st6" d="M8.3,18.9c-3,0-5.6-1.1-6.2-2.5C2,16.7,2,16.9,2,17.1c0,1.7,2.8,3.2,6.4,3.2c3.5,0,6.4-1.4,6.4-3.2
			c0-0.2-0.1-0.5-0.2-0.7C13.9,17.8,11.4,18.9,8.3,18.9z"/>
		<path class="st6" d="M8.3,22c-3,0-5.6-1.1-6.2-2.5C2,19.7,2,20,2,20.2c0,1.7,2.8,3.2,6.4,3.2c3.5,0,6.4-1.4,6.4-3.2
			c0-0.2-0.1-0.5-0.2-0.7C13.9,20.9,11.4,22,8.3,22z"/>
		<path class="st6" d="M8.3,25c-3,0-5.6-1.1-6.2-2.5C2,22.8,2,23,2,23.3c0,1.7,2.8,3.2,6.4,3.2c3.5,0,6.4-1.4,6.4-3.2
			c0-0.2-0.1-0.5-0.2-0.7C13.9,24,11.4,25,8.3,25z"/>
		<path class="st6" d="M30.3,13.9c0,1.7-2.8,3.2-6.4,3.2c-3.5,0-6.4-1.4-6.4-3.2c0-1.7,2.8-3.2,6.4-3.2
			C27.4,10.7,30.3,12.1,30.3,13.9z"/>
		<path class="st6" d="M23.9,18.7c-3,0-5.6-1.1-6.2-2.5c-0.1,0.2-0.2,0.4-0.2,0.7c0,1.7,2.8,3.2,6.4,3.2c3.5,0,6.4-1.4,6.4-3.2
			c0-0.2-0.1-0.5-0.2-0.7C29.5,17.6,27,18.7,23.9,18.7z"/>
		<path class="st6" d="M23.9,21.7c-3,0-5.6-1.1-6.2-2.5c-0.1,0.2-0.2,0.4-0.2,0.7c0,1.7,2.8,3.2,6.4,3.2c3.5,0,6.4-1.4,6.4-3.2
			c0-0.2-0.1-0.5-0.2-0.7C29.5,20.7,27,21.7,23.9,21.7z"/>
		<path class="st6" d="M23.9,24.8c-3,0-5.6-1.1-6.2-2.5c-0.1,0.2-0.2,0.4-0.2,0.7c0,1.7,2.8,3.2,6.4,3.2c3.5,0,6.4-1.4,6.4-3.2
			c0-0.2-0.1-0.5-0.2-0.7C29.5,23.7,27,24.8,23.9,24.8z"/>
	</g>
	<g id="Element_29_" class="st0">
		<g class="st1">
			<g>
				<path class="st7" d="M10,28.2c-3.1,0-5.7-2.5-5.7-5.7c0-3.1,2.5-5.7,5.7-5.7s5.7,2.5,5.7,5.7C15.7,25.7,13.1,28.2,10,28.2z
					 M10,18.4c-2.3,0-4.2,1.9-4.2,4.2s1.9,4.2,4.2,4.2s4.2-1.9,4.2-4.2S12.3,18.4,10,18.4z"/>
			</g>
			<g>
				<path class="st7" d="M10.2,23.8c-0.2,0-0.4-0.1-0.5-0.2l-2.3-2.2c-0.3-0.3-0.3-0.8,0-1c0.3-0.3,0.8-0.3,1,0l1.8,1.7l1.1-1.2
					c0.3-0.3,0.7-0.3,1,0c0.3,0.3,0.3,0.7,0,1l-1.6,1.7C10.6,23.7,10.4,23.8,10.2,23.8C10.2,23.8,10.2,23.8,10.2,23.8z"/>
			</g>
		</g>
		<g class="st1">
			<g>
				<path class="st7" d="M21.5,3.8c-0.5-0.7-1.4-0.8-2-0.3l-4,2.9l6.4-2.2L21.5,3.8z"/>
				<path class="st7" d="M24.3,6.1c-0.2-0.6-0.8-1-1.4-1c-0.2,0-0.3,0-0.5,0.1c0,0,0,0,0,0l-4.9,1.7h6.2h0.9L24.3,6.1z"/>
			</g>
			<path class="st7" d="M26.5,13c-0.3-0.1-0.6-0.2-1-0.2h-1.2c-1.3,0-2.4,1.1-2.4,2.4c0,1.3,1.1,2.4,2.4,2.4h1.2
				c0.3,0,0.7-0.1,1-0.2c0.8-0.4,1.4-1.2,1.4-2.2C27.9,14.2,27.3,13.4,26.5,13z M24.9,16.2c-0.6,0-1-0.5-1-1c0-0.6,0.5-1,1-1
				c0.6,0,1,0.5,1,1C26,15.7,25.5,16.2,24.9,16.2z"/>
		</g>
		<path class="st6" d="M26.5,9.3c0-0.3-0.1-0.5-0.3-0.7C26,8.3,25.8,8.1,25.5,8c-0.1,0-0.3-0.1-0.5-0.1h-0.1h-0.5h-10h-1h-0.7h-1.6
			h-0.3c-0.4,0-0.8,0.2-1.1,0.5C9.5,8.5,9.4,8.8,9.4,9c0,0.1,0,0.2,0,0.3v0.2v1.3v4.5v0.1c0.2,0,0.4,0,0.6,0c3.8,0,7,3.1,7,7
			c0,0.2,0,0.4,0,0.6h1.4h0.2h1.6H25c0.8,0,1.5-0.7,1.5-1.5v-0.7v-0.6v-0.6v-1.2c-0.3,0.1-0.6,0.1-1,0.1h-1.2
			c-1.9,0-3.4-1.5-3.4-3.4c0-1.9,1.5-3.4,3.4-3.4h1.2c0.3,0,0.7,0.1,1,0.1v-1v-0.2L26.5,9.3C26.5,9.3,26.5,9.3,26.5,9.3z"/>
	</g>
	<g id="Element_28_" class="st0">
		<g class="st1">
			<path class="st7" d="M20.3,6.4c-0.2-0.9-1.1-1.6-2.1-1.4L6.7,7.4h13.8L20.3,6.4z"/>
		</g>
		<path class="st6" d="M19.3,19v-2.7c0-1.2,1-2.3,2.3-2.3H25v-3.4c0-1-0.8-1.8-1.8-1.8H6.7c-1,0-1.8,0.8-1.8,1.8v14.1
			c0,1,0.8,1.8,1.8,1.8h16.6c1,0,1.8-0.8,1.8-1.8v-3.4h-3.5C20.3,21.2,19.3,20.2,19.3,19z"/>
		<path class="st6" d="M26,15h-1h-3.5c-0.7,0-1.3,0.6-1.3,1.3V19c0,0.7,0.6,1.3,1.3,1.3H25h1c0.7,0,1.3-0.6,1.3-1.3v-2.7
			C27.3,15.5,26.7,15,26,15z M22.6,18.9c-0.7,0-1.2-0.6-1.2-1.2c0-0.7,0.6-1.2,1.2-1.2c0.7,0,1.2,0.6,1.2,1.2
			C23.8,18.3,23.2,18.9,22.6,18.9z"/>
	</g>
	<g id="Element_27_" class="st0">
		<g class="st1">
			<path class="st7" d="M5.1,22.3c-0.4,0-0.7-0.1-1-0.4c-0.5-0.6-0.5-1.5,0-2l7.4-7.1l6,5.4l8-8c0.6-0.6,1.5-0.6,2,0
				c0.6,0.6,0.6,1.5,0,2L17.6,22l-6-5.4l-5.5,5.3C5.9,22.2,5.5,22.3,5.1,22.3z"/>
		</g>
		<polygon class="st6" points="26,18.9 28.7,16.2 28.6,9 21.4,8.9 18.8,11.6 25.9,11.7 		"/>
	</g>
	<g id="Element_26_" class="st0">
		<g class="st1">
			<path class="st7" d="M22.9,6.4h-2.4l1.6,2.4H23v17H9.3v-17h0.9l1.6-2.4H9.4c-1.2,0-2.2,1-2.2,2.2v17.3c0,1.2,1,2.2,2.2,2.2h13.6
				c1.2,0,2.2-1,2.2-2.2V8.6C25.1,7.3,24.1,6.4,22.9,6.4z"/>
			<path class="st7" d="M20.6,8.7L19,6.4l-0.9-1.3l0,0c0-1.1-0.9-1.9-2-1.9c-1.1,0-2,0.9-2,1.9l0,0l-0.9,1.3l-1.6,2.4l-0.5,0.7
				l4.9,0l4.9,0L20.6,8.7z M16.1,4.4c0.4,0,0.7,0.3,0.7,0.7s-0.3,0.7-0.7,0.7c-0.4,0-0.7-0.3-0.7-0.7S15.8,4.4,16.1,4.4z"/>
		</g>
		<path class="st6" d="M20.2,21.3c0.5-0.5,0.4-1.3-0.1-1.8l-1.3-1.3c-0.5-0.5-0.5-1.4,0-1.9l1.3-1.3c0.5-0.5,0.6-1.3,0.1-1.8
			c-0.5-0.5-1.3-0.4-1.8,0.1l-1.3,1.3c-0.5,0.5-1.4,0.5-1.9,0l-1.3-1.3c-0.5-0.5-1.3-0.6-1.8-0.1c-0.5,0.5-0.4,1.3,0.1,1.8l1.3,1.3
			c0.5,0.5,0.5,1.4,0,1.9l-1.3,1.3c-0.5,0.5-0.6,1.3-0.1,1.8c0.5,0.5,1.3,0.4,1.8-0.1l1.3-1.3c0.5-0.5,1.4-0.5,1.9,0l1.3,1.3
			C18.9,21.7,19.7,21.7,20.2,21.3z"/>
	</g>
	<g id="Element_25_" class="st0">
		<path class="st6" d="M14.7,5.8C8.5,5.9,3.6,11,3.8,17.2C3.9,23.3,9,28.2,15.1,28.1c6.2-0.1,11.1-5.2,10.9-11.4L14.9,17L14.7,5.8z"
			/>
		<path class="st6" d="M17.3,3.1l0.2,11.2l11.2-0.2C28.5,7.9,23.4,3,17.3,3.1z"/>
	</g>
	<g id="Element_24_" class="st0">
		<path class="st6" d="M24,5H8.3C7,5,5.9,6.1,5.9,7.4V23c0,0.8,0.4,1.5,1,1.9v0.5c0,0.4,0.3,0.7,0.7,0.7h2c0.4,0,0.7-0.3,0.7-0.7
			v-0.1h11v0.1c0,0.4,0.3,0.7,0.7,0.7h2c0.4,0,0.7-0.3,0.7-0.7v-0.3c0.8-0.4,1.4-1.2,1.4-2.1V7.4C26.3,6.1,25.3,5,24,5z M8.5,8.9
			c0-0.7,0.6-1.3,1.3-1.3h12.7c0.7,0,1.3,0.6,1.3,1.3v12.7c0,0.7-0.6,1.3-1.3,1.3H9.8c-0.7,0-1.3-0.6-1.3-1.3V8.9z"/>
		<g class="st1">
			<path class="st7" d="M14.4,17.8c0.5,0.3,1.1,0.5,1.7,0.5c0.6,0,1.2-0.2,1.7-0.5l-1.7-1.7L14.4,17.8z"/>
			<path class="st7" d="M13.5,13.5C13.2,14,13,14.6,13,15.2c0,0.6,0.2,1.2,0.5,1.7l1.7-1.7L13.5,13.5z"/>
			<path class="st7" d="M17.8,12.6c-0.5-0.3-1.1-0.5-1.7-0.5c-0.6,0-1.2,0.2-1.7,0.5l1.7,1.7L17.8,12.6z"/>
			<path class="st7" d="M17,15.2l1.7,1.7c0.3-0.5,0.5-1.1,0.5-1.7c0-0.6-0.2-1.2-0.5-1.7L17,15.2z"/>
			<path class="st7" d="M22.5,8.7H9.8c-0.1,0-0.2,0.1-0.2,0.2v12.7c0,0.1,0.1,0.2,0.2,0.2h12.7c0.1,0,0.2-0.1,0.2-0.2V8.9
				C22.7,8.8,22.6,8.7,22.5,8.7z M16.1,19.8c-2.5,0-4.6-2-4.6-4.6c0-2.5,2-4.6,4.6-4.6c2.5,0,4.6,2,4.6,4.6
				C20.7,17.7,18.6,19.8,16.1,19.8z"/>
		</g>
	</g>
	<g id="Element_23_" class="st0">
		<g class="st1">
			<path class="st7" d="M12.3,15.9v-1.3c-0.9,0-1.8-0.3-2.4-0.6l0.4-1.6c0.6,0.3,1.4,0.6,2.3,0.6c0.8,0,1.3-0.3,1.3-0.9
				c0-0.5-0.4-0.9-1.5-1.2C11,10.4,10,9.7,10,8.3c0-1.2,0.9-2.2,2.4-2.5V4.5h1.4v1.2c0.9,0,1.6,0.2,2,0.5l-0.4,1.6
				c-0.4-0.2-1-0.5-2-0.5c-0.9,0-1.2,0.4-1.2,0.8c0,0.5,0.5,0.8,1.7,1.2c1.7,0.6,2.3,1.4,2.3,2.6c0,1.2-0.9,2.3-2.5,2.6v1.4H12.3z"
				/>
		</g>
		<g class="st1">
			<g>
				<g>
					<path class="st7" d="M19.3,20.8H6.4c-0.8,0-1.5-0.7-1.5-1.5c0-0.8,0.7-1.5,1.5-1.5h10.8l3.9-9.2h4.7c0.8,0,1.5,0.7,1.5,1.5
						c0,0.8-0.7,1.5-1.5,1.5h-2.7L19.3,20.8z"/>
				</g>
				<g>
					<path class="st7" d="M10.1,24.3c0,1.4-1.1,2.5-2.5,2.5c-1.4,0-2.5-1.1-2.5-2.5c0-1.4,1.1-2.5,2.5-2.5
						C9,21.8,10.1,22.9,10.1,24.3z"/>
				</g>
				<g>
					<path class="st7" d="M19.3,24.3c0,1.4-1.1,2.5-2.5,2.5c-1.4,0-2.5-1.1-2.5-2.5c0-1.4,1.1-2.5,2.5-2.5
						C18.2,21.8,19.3,22.9,19.3,24.3z"/>
				</g>
			</g>
		</g>
	</g>
	<g id="Element_22_" class="st0">
		<rect x="7.8" y="14" class="st6" width="4.7" height="9.9"/>
		<rect x="13.8" y="9.2" class="st6" width="4.6" height="14.7"/>
		<rect x="19.9" y="16.8" class="st6" width="4.6" height="7.1"/>
		<g class="st1">
			<path class="st7" d="M24.3,26.9H7.9c-1.7,0-3.1-1.4-3.1-3.1V7.4c0-1.7,1.4-3.1,3.1-3.1h16.3c1.7,0,3.1,1.4,3.1,3.1v16.3
				C27.4,25.5,26,26.9,24.3,26.9z M7.9,6.2c-0.7,0-1.3,0.6-1.3,1.3v16.3c0,0.7,0.6,1.3,1.3,1.3h16.3c0.7,0,1.3-0.6,1.3-1.3V7.4
				c0-0.7-0.6-1.3-1.3-1.3H7.9z"/>
		</g>
	</g>
	<g id="Element_21_" class="st0">
		<path class="st6" d="M20.2,21.4l2.5-5.2l-3.6-3.6L15.6,9l-5.2,2.5L6.4,22.9c-0.4,0.1-0.7,0.3-1,0.5C4.9,24,4.7,24.8,5,25.6
			l9.3-9.3c-0.1-0.6,0-1.2,0.4-1.6c0.7-0.7,1.7-0.7,2.4,0c0.7,0.7,0.7,1.7,0,2.4c-0.4,0.4-1.1,0.6-1.6,0.4l-9.3,9.3
			c0.7,0.3,1.6,0.1,2.2-0.5c0.3-0.3,0.5-0.6,0.5-1L20.2,21.4z"/>
		<path class="st6" d="M26.8,15.5c-0.7,0.7-2,0.7-2.7,0l-7.8-7.8c-0.7-0.7-0.7-2,0-2.7l0,0c0.7-0.7,2-0.7,2.7,0l7.8,7.8
			C27.5,13.5,27.5,14.7,26.8,15.5L26.8,15.5z"/>
	</g>
	<g id="Element_20_" class="st0">
		<g class="st1">
			<path class="st4" d="M19.4,12.1h-6.6c-1.5,0-2.7,1.2-2.7,2.7v6.6c0,1.5,1.2,2.7,2.7,2.7h6.6c1.5,0,2.7-1.2,2.7-2.7v-6.6
				C22.1,13.3,20.9,12.1,19.4,12.1z"/>
			<path class="st7" d="M22.3,7.8h-3v0.2c0,1.5-1.3,2.8-2.8,2.8h-0.9c-1.5,0-2.8-1.3-2.8-2.8V7.8h-3c-1.5,0-2.7,1.2-2.7,2.7v13.7
				c0,1.5,1.2,2.7,2.7,2.7h12.4c1.5,0,2.7-1.2,2.7-2.7V10.5C25,9,23.8,7.8,22.3,7.8z M22.1,21.5c0,1.5-1.2,2.7-2.7,2.7h-6.6
				c-1.5,0-2.7-1.2-2.7-2.7v-6.6c0-1.5,1.2-2.7,2.7-2.7h6.6c1.5,0,2.7,1.2,2.7,2.7V21.5z"/>
		</g>
		<path class="st6" d="M16.6,4.4h-0.9c-1.1,0-2,0.9-2,2v1.4v0.2c0,1.1,0.9,2,2,2h0.9c1.1,0,2-0.9,2-2V7.8V6.4
			C18.5,5.3,17.7,4.4,16.6,4.4z M16.1,7.8c-0.7,0-1.2-0.5-1.2-1.2c0-0.7,0.5-1.2,1.2-1.2c0.7,0,1.2,0.5,1.2,1.2
			C17.3,7.3,16.8,7.8,16.1,7.8z"/>
		<path class="st8" d="M19.8,19.9c-0.8-0.5-1.9-0.3-2.7-1.2c0,0-0.3-0.3,0.3-1c0.6-0.7,0.7-1.9,0.5-2.8c-0.2-0.9-1-1.5-1.9-1.5
			c-0.9,0-1.8,0.6-1.9,1.5c-0.2,0.9-0.1,2.1,0.5,2.8c0.6,0.7,0.3,1,0.3,1c-0.7,1-1.9,0.7-2.7,1.2c-0.8,0.5-0.6,1.8-0.6,1.8h4.3h4.3
			C20.4,21.7,20.6,20.5,19.8,19.9z"/>
	</g>
	<g id="Element_19_">
		<ellipse class="st7" cx="16.1" cy="7.7" rx="6.6" ry="3.3"/>
		<path class="st7" d="M16.1,12.7c-3.2,0-5.8-1.1-6.5-2.6c-0.1,0.2-0.2,0.5-0.2,0.7c0,1.8,3,3.3,6.6,3.3c3.6,0,6.6-1.5,6.6-3.3
			c0-0.2-0.1-0.5-0.2-0.7C21.9,11.6,19.3,12.7,16.1,12.7z"/>
		<path class="st7" d="M16.1,15.9c-3.2,0-5.8-1.1-6.5-2.6c-0.1,0.2-0.2,0.5-0.2,0.7c0,1.8,3,3.3,6.6,3.3c3.6,0,6.6-1.5,6.6-3.3
			c0-0.2-0.1-0.5-0.2-0.7C21.9,14.7,19.3,15.9,16.1,15.9z"/>
		<path class="st7" d="M16.1,19c-3.2,0-5.8-1.1-6.5-2.6c-0.1,0.2-0.2,0.5-0.2,0.7c0,1.8,3,3.3,6.6,3.3c3.6,0,6.6-1.5,6.6-3.3
			c0-0.2-0.1-0.5-0.2-0.7C21.9,17.9,19.3,19,16.1,19z"/>
		<path class="st7" d="M16.1,22.2c-3.2,0-5.8-1.1-6.5-2.6c-0.1,0.2-0.2,0.5-0.2,0.7c0,1.8,3,3.3,6.6,3.3c3.6,0,6.6-1.5,6.6-3.3
			c0-0.2-0.1-0.5-0.2-0.7C21.9,21.1,19.3,22.2,16.1,22.2z"/>
		<path class="st7" d="M16.1,25.4c-3.2,0-5.8-1.1-6.5-2.6c-0.1,0.2-0.2,0.5-0.2,0.7c0,1.8,3,3.3,6.6,3.3c3.6,0,6.6-1.5,6.6-3.3
			c0-0.2-0.1-0.5-0.2-0.7C21.9,24.3,19.3,25.4,16.1,25.4z"/>
	</g>
	<g id="Element_18_" class="st0">
		<path class="st6" d="M24.8,4.4H7.4C6,4.4,4.9,5.6,4.9,7v17.3c0,1.4,1.1,2.5,2.5,2.5h17.4c1.4,0,2.5-1.1,2.5-2.5V7
			C27.4,5.6,26.2,4.4,24.8,4.4z M12.5,23.3c0,0.5-0.4,1-1,1H8.8c-0.5,0-1-0.4-1-1v-2.7c0-0.5,0.4-1,1-1h2.7c0.5,0,1,0.4,1,1V23.3z
			 M12.5,17.4c0,0.5-0.4,1-1,1H8.8c-0.5,0-1-0.4-1-1v-2.7c0-0.5,0.4-1,1-1h2.7c0.5,0,1,0.4,1,1V17.4z M18.6,23.3c0,0.5-0.4,1-1,1
			h-2.7c-0.5,0-1-0.4-1-1v-2.7c0-0.5,0.4-1,1-1h2.7c0.5,0,1,0.4,1,1V23.3z M18.6,17.4c0,0.5-0.4,1-1,1h-2.7c-0.5,0-1-0.4-1-1v-2.7
			c0-0.5,0.4-1,1-1h2.7c0.5,0,1,0.4,1,1V17.4z M24.8,23.3c0,0.5-0.4,1-1,1h-2.7c-0.5,0-1-0.4-1-1v-8.6c0-0.5,0.4-1,1-1h2.7
			c0.5,0,1,0.4,1,1V23.3z M24.8,12H7.7V7.3h17.1V12z"/>
	</g>
	<g id="Element_17_" class="st0">
		<path class="st6" d="M7.8,24.6c0,0.8-0.7,1.5-1.5,1.5l0,0c-0.8,0-1.5-0.7-1.5-1.5V7.4c0-0.8,0.7-1.5,1.5-1.5l0,0
			c0.8,0,1.5,0.7,1.5,1.5V24.6z"/>
		<path class="st6" d="M6.3,26.1c-0.8,0-1.5-0.7-1.5-1.5l0,0c0-0.8,0.7-1.5,1.5-1.5h17.2c0.8,0,1.5,0.7,1.5,1.5l0,0
			c0,0.8-0.7,1.5-1.5,1.5H6.3z"/>
		<g class="st1">
			<path class="st7" d="M9.7,21.8c-0.6,0-1.2-0.5-1.2-1.1c-0.1-0.7,0.4-1.3,1.1-1.4c0.5-0.1,10.9-1.4,11.9-11
				c0.1-0.7,0.7-1.2,1.4-1.1c0.7,0.1,1.2,0.7,1.1,1.4c-0.5,4.8-3.1,8.6-7.6,11c-3.3,1.8-6.4,2.2-6.5,2.2C9.8,21.8,9.7,21.8,9.7,21.8
				z"/>
		</g>
		<g class="st1">
			<path class="st7" d="M26,11.6c-0.4,0-0.8-0.2-1-0.5L22.8,8l-3,2.1c-0.6,0.4-1.4,0.3-1.7-0.3c-0.4-0.6-0.3-1.4,0.3-1.7L22,5.5
				c0.4-0.3,0.8-0.4,1.3-0.3c0.5,0.1,0.8,0.3,1.1,0.7L27,9.7c0.4,0.6,0.3,1.4-0.3,1.7C26.5,11.6,26.3,11.6,26,11.6z"/>
		</g>
		<path class="st6" d="M12.3,13.8c0,0.3-0.3,0.6-0.6,0.6H9.5c-0.3,0-0.6-0.3-0.6-0.6v-0.5c0-0.3,0.3-0.6,0.6-0.6h2.1
			c0.3,0,0.6,0.3,0.6,0.6V13.8z"/>
		<path class="st6" d="M17.1,13.8c0,0.3-0.3,0.6-0.6,0.6h-2.1c-0.3,0-0.6-0.3-0.6-0.6v-0.5c0-0.3,0.3-0.6,0.6-0.6h2.1
			c0.3,0,0.6,0.3,0.6,0.6V13.8z"/>
		<path class="st6" d="M20.5,21.4c-0.3,0-0.6-0.3-0.6-0.6v-2.1c0-0.3,0.3-0.6,0.6-0.6H21c0.3,0,0.6,0.3,0.6,0.6v2.1
			c0,0.3-0.3,0.6-0.6,0.6H20.5z"/>
	</g>
	<g id="Element_16_" class="st0">
		<g class="st1">
			<path class="st7" d="M16.1,26.9c-6.2,0-11.2-5-11.2-11.2s5-11.2,11.2-11.2s11.2,5,11.2,11.2S22.3,26.9,16.1,26.9z M16.1,5.2
				c-5.8,0-10.5,4.7-10.5,10.5s4.7,10.5,10.5,10.5s10.5-4.7,10.5-10.5S21.9,5.2,16.1,5.2z M16.1,22.6c-3.9,0-7-3.1-7-7s3.1-7,7-7
				s7,3.1,7,7S20,22.6,16.1,22.6z M16.1,9.4c-3.4,0-6.2,2.8-6.2,6.2s2.8,6.2,6.2,6.2s6.2-2.8,6.2-6.2S19.5,9.4,16.1,9.4z"/>
		</g>
		<g class="st1">
			<path class="st7" d="M16.1,22.2c-1.9,0-3.7-0.8-4.9-2.1l-3.3,2.6c2,2.3,4.9,3.8,8.2,3.8c4.1,0,7.7-2.3,9.5-5.7l-3.8-1.9
				C20.7,20.9,18.6,22.2,16.1,22.2z"/>
			<path class="st7" d="M16.1,9c0.2,0,0.3,0,0.5,0V4.8c-0.2,0-0.3,0-0.5,0c-0.2,0-0.3,0-0.5,0V9C15.8,9,16,9,16.1,9z"/>
			<path class="st7" d="M10.6,19.3l-3.3,2.6c0.2,0.3,0.4,0.5,0.6,0.8l3.3-2.6C11,19.8,10.8,19.6,10.6,19.3z"/>
			<path class="st7" d="M22.3,18.1c-0.1,0.3-0.3,0.6-0.4,0.9l3.8,1.9c0.2-0.3,0.3-0.6,0.4-0.9L22.3,18.1z"/>
		</g>
	</g>
</g>
</svg>
