<?xml version="1.0" encoding="utf-8"?>
<!-- Generator: Adobe Illustrator 24.1.0, SVG Export Plug-In . SVG Version: 6.00 Build 0)  -->
<svg version="1.1" id="レイヤー_1" xmlns="http://www.w3.org/2000/svg" xmlns:xlink="http://www.w3.org/1999/xlink" x="0px"
	 y="0px" viewBox="0 0 32 32" style="enable-background:new 0 0 32 32;" xml:space="preserve">
<style type="text/css">
	.st0{fill:#FFFFFF;}
</style>
<path class="st0" d="M16,4C9.4,4,4,9.4,4,16s5.4,12,12,12s12-5.4,12-12S22.6,4,16,4z M16,6c0.2,0,0.5,0.1,0.8,0.5s0.7,1.1,1.1,2
	C18,9,18.2,9.5,18.3,10h-4.6c0.1-0.5,0.3-1,0.4-1.4c0.3-0.9,0.7-1.6,1.1-2S15.8,6,16,6z M12.8,6.5c-0.2,0.4-0.4,0.9-0.6,1.4
	C12,8.5,11.8,9.2,11.6,10H8C9.2,8.4,10.9,7.2,12.8,6.5z M19.2,6.5c1.9,0.7,3.6,1.9,4.8,3.5h-3.6c-0.2-0.8-0.4-1.5-0.6-2.1
	C19.6,7.4,19.4,6.9,19.2,6.5z M6.8,12h4.5c-0.1,0.9-0.2,2-0.2,3h-5C6.2,13.9,6.4,12.9,6.8,12z M13.3,12h5.4c0.1,0.9,0.2,1.9,0.3,3
	H13C13.1,13.9,13.2,12.9,13.3,12z M20.7,12h4.5c0.4,0.9,0.6,1.9,0.8,3h-5C20.9,14,20.8,12.9,20.7,12z M6.1,17h5c0,1,0.1,2.1,0.2,3
	H6.8C6.4,19.1,6.2,18.1,6.1,17z M13,17H19c0,1.1-0.1,2.1-0.3,3h-5.4C13.2,19.1,13.1,18.1,13,17z M21,17h5c-0.1,1.1-0.3,2.1-0.8,3
	h-4.5C20.8,19.1,20.9,18,21,17z M8,22h3.6c0.2,0.8,0.4,1.5,0.6,2.1c0.2,0.5,0.4,1,0.6,1.4C10.9,24.8,9.2,23.6,8,22z M13.7,22h4.6
	c-0.1,0.5-0.3,1-0.4,1.4c-0.3,0.9-0.7,1.6-1.1,2S16.2,26,16,26c-0.2,0-0.5-0.1-0.8-0.5s-0.7-1.1-1.1-2C14,23,13.8,22.5,13.7,22z
	 M20.4,22H24c-1.2,1.6-2.9,2.8-4.8,3.5c0.2-0.4,0.4-0.9,0.6-1.4C20,23.5,20.2,22.8,20.4,22z"/>
</svg>
