<svg width="1024.0003789854693" height="768.0002842391019" xmlns="http://www.w3.org/2000/svg">
 <!-- Created with Method Draw - http://github.com/duopixel/Method-Draw/ -->

 <g>
  <title>background</title>
  <rect height="770" width="1026" y="-1" x="-1" fill="#fff" id="canvas_background"/>
  <g y="0" x="0" height="100%" width="100%" display="none" overflow="visible" id="canvasGrid">
   <rect height="100%" width="100%" y="0" x="0" stroke-width="0" fill="url(#gridpattern)"/>
  </g>
 </g>
 <g>
  <title>Layer 1</title>
  <g id="svg_5">
   <path d="m511.99997,64.30768c-184.19656,0 -333.53845,143.14224 -333.53845,319.69226s149.34189,319.69238 333.53845,319.69238s333.53848,-143.14233 333.53848,-319.69238s-149.34192,-319.69226 -333.53848,-319.69226zm0,559.46161c-138.1268,0 -250.1539,-107.37659 -250.1539,-239.76935s112.0271,-239.76917 250.1539,-239.76917s250.15384,107.37651 250.15384,239.76917s-112.0271,239.76935 -250.15384,239.76935zm61.28775,-320.57166l-61.28775,-118.96542l-61.24603,118.96542l-137.00076,19.10175l99.1442,92.59091l-23.43115,130.71414l122.53375,-61.70059l122.4921,61.74051l-23.38953,-130.71399l99.10254,-92.59103l-136.91736,-19.14169l0,0z" fill="#153c93" id="svg_4"/>
  </g>
 </g>
</svg>